<svg xmlns="http://www.w3.org/2000/svg" xmlns:xlink="http://www.w3.org/1999/xlink" width="600" zoomAndPan="magnify" viewBox="0 0 450 112.499997" height="150" preserveAspectRatio="xMidYMid meet" version="1.0"><defs><g/></defs><g fill="#991a14" fill-opacity="0.502"><g transform="translate(12.163044, 96.214114)"><g><path d="M 48.832031 -25.535156 L 48.636719 -26.738281 C 48.300781 -28.808594 47.730469 -30.632812 46.855469 -32.207031 L 53.667969 -33.3125 C 53.457031 -33.757812 53.183594 -34.191406 52.917969 -34.558594 L 48.042969 -33.769531 C 47.246094 -34.875 46.359375 -35.691406 45.351562 -36.417969 C 46.851562 -38.578125 47.496094 -41.355469 47.3125 -44.617188 L 48.847656 -44.863281 C 48.804688 -45.542969 48.761719 -46.222656 48.65625 -46.890625 L 48.308594 -49.027344 L 46.304688 -48.703125 L 46.046875 -50.304688 C 45.566406 -53.242188 44.777344 -55.582031 43.652344 -57.453125 L 48.792969 -58.289062 C 48.242188 -59.15625 47.632812 -59.949219 46.910156 -60.585938 C 46.347656 -61.113281 45.660156 -61.550781 44.914062 -61.90625 L 41.175781 -61.300781 C 40.132812 -61.816406 39 -62.042969 37.675781 -62.171875 C 36.5 -62.253906 35.273438 -62.195312 33.871094 -61.964844 L -3.71875 -55.867188 L -3.710938 -55.800781 C -4.234375 -55.644531 -4.746094 -55.425781 -5.191406 -55.214844 C -6.003906 -54.742188 -6.664062 -54.15625 -7.167969 -53.457031 L 4.652344 -55.375 C 4.371094 -54.984375 4.160156 -54.609375 3.957031 -54.164062 C 3.777344 -53.585938 3.605469 -52.941406 3.558594 -52.386719 L 3.789062 -50.984375 L -5.160156 -49.53125 L -3.707031 -40.585938 L 2.101562 -41.527344 L 2.773438 -37.386719 L 1.238281 -37.140625 L 2.972656 -26.457031 L 7.84375 -27.246094 L 8.0625 -25.910156 L 1.25 -24.804688 L 2.355469 -17.996094 L 11.105469 -19.414062 L 11.777344 -15.273438 L 3.027344 -13.855469 L 4.058594 -7.511719 L 8.796875 -8.28125 L 9.027344 -6.878906 L 2.484375 -5.816406 L 2.546875 -5.417969 C 2.800781 -4.703125 3.1875 -4.011719 3.617188 -3.464844 C 4.128906 -2.863281 4.757812 -2.347656 5.425781 -2.046875 L 11.769531 -3.074219 C 12.890625 -2.503906 14.167969 -2.230469 15.503906 -2.445312 L 45.550781 -7.324219 C 47.484375 -7.636719 49.167969 -8.253906 50.394531 -9.136719 C 50.519531 -9.226562 50.574219 -9.304688 50.695312 -9.390625 L 44.351562 -8.363281 C 45.457031 -9.160156 46.375 -10.265625 46.925781 -11.519531 C 47.183594 -12.042969 47.375 -12.554688 47.488281 -13.121094 L 54.03125 -14.183594 C 54.167969 -14.613281 54.289062 -15.113281 54.335938 -15.671875 L 49.597656 -14.902344 C 49.65625 -15.390625 49.769531 -15.957031 49.75 -16.503906 C 49.855469 -17.957031 49.71875 -19.648438 49.503906 -21.398438 L 54.511719 -22.210938 C 54.46875 -22.476562 54.421875 -22.742188 54.371094 -23.078125 L 53.839844 -26.347656 Z M 39.6875 -19.804688 C 39.78125 -18.792969 39.644531 -17.945312 39.253906 -17.402344 C 38.882812 -16.726562 37.992188 -16.308594 36.65625 -16.089844 L 13.421875 -12.320312 C 13.421875 -12.320312 13.34375 -12.375 13.300781 -12.644531 L 12.84375 -15.449219 L 21.523438 -16.855469 L 20.851562 -20.996094 L 12.105469 -19.578125 L 11 -26.386719 L 17.8125 -27.492188 L 17.59375 -28.828125 L 12.71875 -28.039062 L 10.984375 -38.722656 L 12.523438 -38.96875 L 11.851562 -43.109375 L 9.847656 -42.785156 L 9.097656 -47.390625 C 9.054688 -47.660156 9.101562 -47.804688 9.167969 -47.816406 L 32.339844 -51.574219 C 33.605469 -51.78125 34.597656 -51.597656 35.226562 -51.085938 C 35.859375 -50.570312 36.300781 -49.542969 36.527344 -48.144531 L 36.691406 -47.140625 L 38.691406 -47.464844 L 39.277344 -43.859375 C 39.308594 -43.660156 39.332031 -43.527344 39.363281 -43.328125 L 37.828125 -43.078125 C 37.933594 -41.996094 37.796875 -41.152344 37.351562 -40.53125 C 36.914062 -39.84375 35.832031 -39.328125 34.164062 -39.054688 L 21.210938 -36.953125 C 19.941406 -36.746094 19.101562 -35.582031 19.296875 -34.382812 L 20.132812 -29.238281 L 25.074219 -30.042969 L 25.128906 -29.707031 C 25.191406 -29.308594 25.3125 -28.984375 25.488281 -28.738281 L 18.679688 -27.632812 C 19.199219 -26.964844 20.007812 -26.617188 20.878906 -26.757812 L 33.832031 -28.859375 C 35.5 -29.128906 36.699219 -28.914062 37.410156 -28.34375 C 38.121094 -27.773438 38.558594 -26.75 38.796875 -25.277344 L 39.015625 -23.945312 L 47.761719 -25.363281 L 48.28125 -22.15625 C 48.335938 -21.824219 48.390625 -21.492188 48.433594 -21.222656 Z M 17.980469 -43.351562 L 30.265625 -45.34375 L 30.492188 -43.941406 L 18.207031 -41.949219 Z M 24.535156 -16.042969 L 35.6875 -17.851562 L 35.792969 -17.183594 L 24.644531 -15.375 Z M 18.804688 -20.527344 L 25.347656 -21.589844 L 25.46875 -20.855469 L 18.921875 -19.792969 Z M 11.25 -45.960938 L 17.859375 -47.03125 L 17.980469 -46.296875 L 11.371094 -45.226562 Z M 11.25 -45.960938 "/></g></g></g><g fill="#991a14" fill-opacity="0.502"><g transform="translate(70.769739, 86.615376)"><g><path d="M 53.75 -37.003906 L 53.363281 -40.566406 C 52.996094 -43.929688 52.40625 -46.859375 51.664062 -49.296875 L 46.757812 -48.765625 C 46.660156 -49.027344 46.628906 -49.292969 46.542969 -49.488281 C 46.035156 -51 45.421875 -52.292969 44.683594 -53.4375 L 47.777344 -53.773438 C 47.269531 -54.671875 46.710938 -55.425781 46.027344 -56.101562 C 45.722656 -56.410156 45.421875 -56.648438 45.125 -56.886719 L 48.824219 -57.289062 C 47.472656 -58.4375 45.894531 -59.21875 44.070312 -59.699219 C 41.90625 -60.210938 39.308594 -60.339844 36.347656 -60.015625 L 20.003906 -58.242188 C 17.046875 -57.921875 14.535156 -57.238281 12.53125 -56.273438 C 10.855469 -55.410156 9.546875 -54.316406 8.472656 -52.90625 L 4.773438 -52.503906 C 4.535156 -52.207031 4.226562 -51.902344 4.0625 -51.542969 C 3.539062 -50.738281 3.15625 -49.878906 2.855469 -48.894531 L -0.308594 -48.550781 C -0.78125 -47.273438 -1.105469 -45.878906 -1.273438 -44.292969 C -1.320312 -44.085938 -1.289062 -43.816406 -1.328125 -43.539062 L 3.582031 -44.074219 C 3.3125 -41.527344 3.367188 -38.539062 3.730469 -35.175781 L 4.117188 -31.613281 L -0.722656 -31.085938 L -0.546875 -29.472656 L 2.613281 -29.816406 L 3.476562 -21.878906 L 1.054688 -21.617188 L 1.074219 -21.414062 C 1.257812 -19.734375 1.492188 -18.195312 1.78125 -16.796875 L 3.867188 -17.023438 C 4.207031 -15.15625 4.65625 -13.503906 5.148438 -12.125 C 5.445312 -11.273438 5.734375 -10.488281 6.089844 -9.710938 L 1.71875 -9.238281 C 1.980469 -8.71875 2.238281 -8.203125 2.566406 -7.695312 L 8.753906 -8.367188 C 9.257812 -7.46875 9.882812 -6.722656 10.503906 -6.039062 C 11.34375 -5.179688 12.234375 -4.527344 13.246094 -3.957031 L 9.617188 -3.5625 C 10.480469 -3.113281 11.480469 -2.675781 12.527344 -2.449219 C 14.625 -1.929688 17.222656 -1.804688 20.183594 -2.125 L 36.589844 -3.90625 C 39.550781 -4.230469 42.0625 -4.910156 44.066406 -5.875 C 45.039062 -6.320312 45.855469 -6.953125 46.671875 -7.585938 L 50.300781 -7.980469 C 51.171875 -8.757812 51.898438 -9.585938 52.542969 -10.539062 C 53.058594 -11.410156 53.441406 -12.269531 53.8125 -13.261719 L 49.371094 -12.78125 C 49.582031 -13.347656 49.726562 -13.90625 49.871094 -14.46875 L 52.492188 -14.753906 C 52.671875 -15.589844 52.855469 -16.425781 52.894531 -17.3125 C 53.070312 -18.828125 53.164062 -20.472656 53.09375 -22.371094 L 55.109375 -22.589844 C 55.09375 -24.015625 54.992188 -25.570312 54.808594 -27.253906 L 54.785156 -27.453125 L 53.644531 -27.328125 L 52.78125 -35.265625 L 50.292969 -34.996094 L 50.117188 -36.609375 Z M 40.273438 -33.90625 L 41.136719 -25.972656 L 44.765625 -26.367188 L 44.921875 -24.953125 C 45.058594 -23.675781 45.117188 -22.523438 45.15625 -21.507812 L 43.140625 -21.289062 C 43.132812 -20.746094 43.125 -20.199219 43.105469 -19.722656 C 42.96875 -18.480469 42.75 -17.367188 42.285156 -16.636719 C 41.894531 -15.847656 41.273438 -15.304688 40.429688 -14.9375 C 39.589844 -14.507812 38.460938 -14.25 37.050781 -14.09375 L 21.3125 -12.386719 C 19.902344 -12.234375 18.742188 -12.242188 17.765625 -12.476562 C 16.929688 -12.65625 16.207031 -13.054688 15.652344 -13.746094 C 15.042969 -14.359375 14.523438 -15.390625 14.1875 -16.578125 C 14.070312 -17.042969 13.945312 -17.574219 13.820312 -18.105469 L 11.734375 -17.878906 C 11.492188 -18.871094 11.300781 -20.007812 11.160156 -21.285156 L 11.007812 -22.699219 L 13.429688 -22.960938 L 12.566406 -30.894531 L 27.695312 -32.539062 L 27.523438 -34.152344 L 14.140625 -32.699219 L 13.628906 -37.40625 C 13.414062 -39.359375 13.300781 -41.046875 13.421875 -42.421875 C 13.5 -43.585938 13.742188 -44.496094 14.074219 -45.214844 L 9.164062 -44.679688 C 9.214844 -44.820312 9.277344 -44.894531 9.328125 -45.039062 C 9.726562 -45.761719 10.347656 -46.304688 11.183594 -46.738281 C 12.03125 -47.101562 13.152344 -47.425781 14.5625 -47.578125 L 30.300781 -49.289062 C 31.710938 -49.441406 32.878906 -49.367188 33.847656 -49.199219 C 34.691406 -48.949219 35.414062 -48.550781 35.960938 -47.929688 C 36.042969 -47.804688 36.117188 -47.742188 36.199219 -47.617188 L 41.105469 -48.148438 C 41.582031 -47.523438 42.023438 -46.617188 42.339844 -45.5625 C 42.757812 -44.246094 43.007812 -42.574219 43.21875 -40.621094 L 43.730469 -35.914062 L 38.417969 -35.335938 L 38.589844 -33.722656 Z M 37.769531 -21.25 L 27.949219 -20.183594 L 27.855469 -21.058594 L 37.675781 -22.125 Z M 25.28125 -16.558594 L 18.894531 -15.867188 L 18.84375 -16.335938 L 25.230469 -17.03125 Z M 35.378906 -43.242188 L 22.601562 -41.851562 L 22.464844 -43.128906 L 35.242188 -44.519531 Z M 25.671875 -25.515625 L 16.253906 -24.492188 L 16.183594 -25.164062 L 25.597656 -26.1875 Z M 25.671875 -25.515625 "/></g></g></g><g fill="#991a14" fill-opacity="0.502"><g transform="translate(132.475922, 79.857864)"><g><path d="M 55.664062 -34.058594 L 55.46875 -37.636719 C 55.285156 -41.015625 54.851562 -43.972656 54.242188 -46.445312 L 49.3125 -46.179688 C 49.230469 -46.445312 49.214844 -46.714844 49.136719 -46.914062 C 48.714844 -48.449219 48.167969 -49.773438 47.492188 -50.957031 L 50.601562 -51.125 C 50.144531 -52.050781 49.625 -52.835938 48.976562 -53.542969 C 48.691406 -53.867188 48.40625 -54.121094 48.121094 -54.378906 L 51.835938 -54.582031 C 50.550781 -55.796875 49.011719 -56.664062 47.21875 -57.242188 C 45.085938 -57.871094 42.496094 -58.136719 39.523438 -57.976562 L 23.109375 -57.082031 C 20.136719 -56.917969 17.59375 -56.375 15.539062 -55.515625 C 13.820312 -54.746094 12.453125 -53.722656 11.308594 -52.375 L 7.59375 -52.171875 C 7.335938 -51.886719 7.015625 -51.597656 6.828125 -51.25 C 6.261719 -50.472656 5.832031 -49.636719 5.480469 -48.667969 L 2.304688 -48.496094 C 1.761719 -47.246094 1.363281 -45.871094 1.109375 -44.300781 C 1.054688 -44.09375 1.070312 -43.824219 1.015625 -43.546875 L 5.945312 -43.816406 C 5.542969 -41.289062 5.433594 -38.300781 5.617188 -34.925781 L 5.8125 -31.34375 L 0.949219 -31.078125 L 1.039062 -29.457031 L 4.210938 -29.632812 L 4.648438 -21.660156 L 2.214844 -21.527344 L 2.226562 -21.324219 C 2.316406 -19.636719 2.46875 -18.085938 2.683594 -16.675781 L 4.777344 -16.789062 C 5.015625 -14.90625 5.375 -13.230469 5.792969 -11.832031 C 6.042969 -10.964844 6.289062 -10.164062 6.601562 -9.371094 L 2.210938 -9.128906 C 2.445312 -8.601562 2.675781 -8.070312 2.976562 -7.546875 L 9.191406 -7.886719 C 9.648438 -6.960938 10.230469 -6.179688 10.8125 -5.464844 C 11.605469 -4.5625 12.457031 -3.863281 13.441406 -3.238281 L 9.792969 -3.039062 C 10.632812 -2.542969 11.609375 -2.054688 12.640625 -1.773438 C 14.707031 -1.140625 17.296875 -0.875 20.265625 -1.035156 L 36.75 -1.933594 C 39.722656 -2.09375 42.265625 -2.640625 44.320312 -3.496094 C 45.3125 -3.890625 46.164062 -4.476562 47.011719 -5.066406 L 50.660156 -5.265625 C 51.566406 -5.992188 52.335938 -6.777344 53.03125 -7.699219 C 53.597656 -8.542969 54.023438 -9.378906 54.445312 -10.347656 L 49.988281 -10.105469 C 50.230469 -10.660156 50.402344 -11.210938 50.574219 -11.765625 L 53.210938 -11.90625 C 53.4375 -12.734375 53.660156 -13.558594 53.75 -14.445312 C 54.007812 -15.949219 54.1875 -17.582031 54.21875 -19.480469 L 56.246094 -19.59375 C 56.304688 -21.019531 56.289062 -22.574219 56.195312 -24.265625 L 56.183594 -24.46875 L 55.035156 -24.40625 L 54.601562 -32.375 L 52.101562 -32.238281 L 52.015625 -33.859375 Z M 42.039062 -31.691406 L 42.472656 -23.71875 L 46.121094 -23.917969 L 46.199219 -22.5 C 46.265625 -21.21875 46.261719 -20.066406 46.25 -19.046875 L 44.222656 -18.9375 C 44.183594 -18.394531 44.148438 -17.851562 44.105469 -17.375 C 43.902344 -16.144531 43.621094 -15.042969 43.117188 -14.339844 C 42.6875 -13.570312 42.035156 -13.0625 41.171875 -12.742188 C 40.3125 -12.355469 39.171875 -12.160156 37.753906 -12.082031 L 21.949219 -11.222656 C 20.53125 -11.144531 19.375 -11.21875 18.410156 -11.503906 C 17.585938 -11.730469 16.882812 -12.164062 16.371094 -12.882812 C 15.792969 -13.527344 15.328125 -14.585938 15.058594 -15.792969 C 14.96875 -16.261719 14.871094 -16.796875 14.773438 -17.335938 L 12.679688 -17.21875 C 12.488281 -18.226562 12.359375 -19.371094 12.289062 -20.65625 L 12.210938 -22.074219 L 14.644531 -22.207031 L 14.210938 -30.175781 L 29.40625 -31.003906 L 29.320312 -32.625 L 15.878906 -31.890625 L 15.621094 -36.621094 C 15.511719 -38.578125 15.488281 -40.273438 15.6875 -41.636719 C 15.824219 -42.796875 16.117188 -43.691406 16.484375 -44.390625 L 11.554688 -44.121094 C 11.613281 -44.261719 11.675781 -44.332031 11.738281 -44.472656 C 12.171875 -45.171875 12.824219 -45.683594 13.683594 -46.066406 C 14.546875 -46.386719 15.683594 -46.652344 17.101562 -46.726562 L 32.90625 -47.589844 C 34.328125 -47.664062 35.484375 -47.527344 36.445312 -47.308594 C 37.273438 -47.011719 37.976562 -46.578125 38.484375 -45.925781 C 38.5625 -45.796875 38.632812 -45.730469 38.707031 -45.601562 L 43.636719 -45.871094 C 44.078125 -45.214844 44.46875 -44.289062 44.730469 -43.21875 C 45.074219 -41.882812 45.234375 -40.199219 45.339844 -38.238281 L 45.597656 -33.511719 L 40.261719 -33.21875 L 40.351562 -31.597656 Z M 38.859375 -19.1875 L 28.996094 -18.652344 L 28.949219 -19.527344 L 38.808594 -20.066406 Z M 26.136719 -15.175781 L 19.71875 -14.828125 L 19.695312 -15.300781 L 26.109375 -15.648438 Z M 37.65625 -41.277344 L 24.820312 -40.578125 L 24.75 -41.859375 L 37.585938 -42.558594 Z M 27.007812 -24.097656 L 17.550781 -23.582031 L 17.511719 -24.257812 L 26.96875 -24.773438 Z M 27.007812 -24.097656 "/></g></g></g><g fill="#991a14" fill-opacity="0.502"><g transform="translate(194.516824, 76.54305)"><g><path d="M 48.148438 -3.796875 L 48.128906 -7.855469 C 48.121094 -9.953125 46.765625 -10.21875 46.226562 -10.214844 L 24.242188 -10.117188 C 22.820312 -10.113281 21.601562 -10.242188 20.722656 -10.578125 L 17.269531 -10.5625 C 16.457031 -10.828125 15.78125 -11.367188 15.304688 -12.039062 C 14.757812 -12.78125 14.414062 -13.796875 14.140625 -15.011719 C 14.140625 -15.011719 14.140625 -15.011719 14.140625 -15.078125 L 17.117188 -15.09375 C 16.90625 -16.378906 16.765625 -18.066406 16.753906 -20.097656 L 16.746094 -22.398438 L 22.699219 -22.421875 L 22.691406 -23.910156 L 16.941406 -23.886719 L 16.890625 -35.386719 L 14.050781 -35.375 L 14.03125 -39.90625 L 26.273438 -39.960938 L 26.261719 -43.003906 L 14.964844 -42.953125 L 14.945312 -47.484375 L 16.839844 -47.496094 L 16.820312 -51.960938 L 13.367188 -51.945312 L 13.363281 -53.433594 C 13.351562 -55.597656 12 -55.792969 11.457031 -55.792969 L 5.234375 -55.765625 C 4.625 -55.761719 3.273438 -55.550781 3.28125 -53.386719 L 3.289062 -51.898438 L 6.808594 -51.914062 L 6.828125 -47.449219 L 0.875 -47.425781 L 0.894531 -42.890625 L 6.101562 -42.914062 L 6.117188 -39.871094 L 3.949219 -39.863281 L 3.972656 -35.328125 L 6.878906 -35.34375 L 6.929688 -23.84375 L 3.546875 -23.828125 L 3.554688 -22.339844 L 6.734375 -22.351562 L 6.738281 -21.203125 C 6.75 -18.902344 6.894531 -16.875 7.105469 -15.050781 L 4.058594 -15.035156 C 4.269531 -13.75 4.410156 -12.535156 4.683594 -11.519531 C 4.753906 -11.113281 4.890625 -10.84375 4.960938 -10.507812 L 8.34375 -10.523438 C 8.960938 -8.292969 9.847656 -6.335938 11.074219 -4.917969 C 11.414062 -4.445312 11.753906 -4.042969 12.160156 -3.640625 L 5.667969 -3.609375 C 6.277344 -3.070312 6.957031 -2.601562 7.703125 -2.132812 L 15.820312 -2.167969 C 16.5 -1.765625 17.175781 -1.429688 17.921875 -1.160156 C 20.023438 -0.425781 22.59375 -0.03125 25.503906 -0.0429688 L 47.894531 -0.144531 C 48.433594 -0.144531 49.652344 -0.421875 49.710938 -2.316406 L 51.738281 -2.324219 C 51.738281 -2.390625 51.738281 -2.460938 51.738281 -2.527344 L 51.734375 -3.8125 Z M 35.332031 -26.335938 L 25.453125 -26.292969 L 25.449219 -27.171875 L 35.328125 -27.214844 Z M 32.203125 -14.753906 L 17.996094 -14.691406 L 17.992188 -15.433594 L 32.199219 -15.496094 Z M 34.222656 -47.636719 L 20.355469 -47.578125 L 20.347656 -48.929688 L 34.214844 -48.992188 Z M 34.222656 -47.636719 "/></g></g></g><g fill="#991a14" fill-opacity="0.502"><g transform="translate(247.766342, 76.244831)"><g><path d="M 49.164062 -51.128906 L 49.171875 -51.328125 C 49.265625 -53.492188 47.988281 -53.75 47.378906 -53.777344 L 8.585938 -55.425781 C 7.976562 -55.453125 6.683594 -55.234375 6.589844 -53.074219 L 6.585938 -52.9375 L 14.152344 -52.617188 L 14.09375 -51.195312 L 6.523438 -51.519531 L 6.367188 -47.867188 C 6.359375 -47.667969 6.355469 -47.53125 6.417969 -47.394531 L 10.605469 -47.214844 C 10.738281 -45.515625 11.878906 -45.265625 12.351562 -45.246094 L 53.714844 -43.484375 C 54.1875 -43.464844 55.34375 -43.621094 55.617188 -45.300781 L 48.925781 -45.585938 C 48.933594 -45.71875 48.9375 -45.855469 48.945312 -45.992188 L 49.101562 -49.707031 L 53.5625 -49.519531 L 53.625 -50.9375 Z M 49.28125 -25.257812 L 49.34375 -26.675781 L 53.125 -26.515625 L 53.210938 -28.476562 C 53.300781 -30.570312 51.960938 -30.898438 51.417969 -30.921875 L 16.542969 -32.335938 C 14.644531 -32.28125 12.839844 -31.277344 11.824219 -29.695312 C 11.535156 -29.234375 11.3125 -28.769531 11.15625 -28.300781 L 7.371094 -28.460938 C 7.296875 -28.328125 7.296875 -28.261719 7.289062 -28.128906 L 7.175781 -27.046875 L 13.933594 -26.761719 L 13.574219 -19.871094 L 15.601562 -19.785156 L 15.421875 -15.59375 L 5.625 -16.011719 L 5.28125 -9.59375 L 13.121094 -9.257812 L 13.0625 -7.839844 L 7.046875 -8.097656 L 6.867188 -3.90625 L 13.558594 -3.621094 L 13.480469 -1.730469 C 13.390625 0.367188 14.730469 0.695312 15.339844 0.71875 L 21.488281 0.980469 C 22.097656 1.007812 23.394531 0.792969 23.480469 -1.304688 C 23.480469 -1.304688 23.511719 -1.980469 23.5625 -3.195312 L 16.871094 -3.480469 C 16.917969 -4.5625 16.980469 -6.046875 17.050781 -7.671875 L 36.175781 -6.855469 C 36.195312 -7.332031 36.214844 -7.804688 36.238281 -8.277344 L 15.285156 -9.167969 C 15.375 -11.261719 15.535156 -13.488281 15.625 -15.585938 L 25.359375 -15.171875 C 25.425781 -16.726562 25.554688 -18.210938 25.605469 -19.359375 L 23.578125 -19.445312 C 23.644531 -21.066406 23.6875 -22.082031 23.6875 -22.082031 L 52.683594 -20.847656 C 53.222656 -20.824219 54.582031 -20.96875 54.671875 -23.066406 L 54.757812 -25.023438 Z M 45.058594 -34.171875 L 22.144531 -35.144531 L 22.191406 -36.226562 L 45.101562 -35.253906 Z M 46.433594 -14.003906 L 31.496094 -14.640625 L 31.542969 -15.722656 L 46.480469 -15.085938 Z M 29.550781 -38.960938 L 15.496094 -39.558594 L 15.523438 -40.234375 L 29.582031 -39.636719 Z M 29.550781 -38.960938 "/></g></g></g><g fill="#991a14" fill-opacity="0.502"><g transform="translate(302.658214, 78.555035)"><g><path d="M 48.292969 0.730469 L 48.652344 -3.3125 C 48.839844 -5.402344 47.519531 -5.792969 46.980469 -5.839844 L 25.082031 -7.804688 C 23.667969 -7.929688 22.464844 -8.171875 21.621094 -8.589844 L 18.183594 -8.898438 C 17.398438 -9.238281 16.773438 -9.839844 16.363281 -10.554688 C 15.890625 -11.34375 15.644531 -12.386719 15.484375 -13.621094 C 15.484375 -13.621094 15.484375 -13.621094 15.488281 -13.6875 L 18.453125 -13.421875 C 18.367188 -14.722656 18.382812 -16.417969 18.5625 -18.4375 L 18.769531 -20.730469 L 24.699219 -20.199219 L 24.832031 -21.679688 L 19.105469 -22.195312 L 20.132812 -33.648438 L 17.300781 -33.902344 L 17.707031 -38.417969 L 29.902344 -37.324219 L 30.171875 -40.355469 L 18.921875 -41.363281 L 19.328125 -45.878906 L 21.210938 -45.707031 L 21.613281 -50.15625 L 18.175781 -50.464844 L 18.308594 -51.945312 C 18.5 -54.101562 17.171875 -54.425781 16.632812 -54.472656 L 10.433594 -55.027344 C 9.828125 -55.082031 8.460938 -55 8.269531 -52.84375 L 8.136719 -51.363281 L 11.640625 -51.050781 L 11.242188 -46.601562 L 5.3125 -47.132812 L 4.90625 -42.621094 L 10.09375 -42.15625 L 9.824219 -39.121094 L 7.667969 -39.316406 L 7.261719 -34.800781 L 10.160156 -34.542969 L 9.132812 -23.089844 L 5.765625 -23.390625 L 5.632812 -21.90625 L 8.796875 -21.625 L 8.695312 -20.480469 C 8.488281 -18.1875 8.445312 -16.15625 8.484375 -14.316406 L 5.449219 -14.589844 C 5.539062 -13.289062 5.5625 -12.066406 5.742188 -11.03125 C 5.773438 -10.621094 5.886719 -10.339844 5.921875 -9.996094 L 9.289062 -9.695312 C 9.699219 -7.417969 10.398438 -5.382812 11.484375 -3.859375 C 11.777344 -3.359375 12.078125 -2.925781 12.449219 -2.484375 L 5.980469 -3.0625 C 6.539062 -2.46875 7.167969 -1.9375 7.867188 -1.398438 L 15.953125 -0.675781 C 16.589844 -0.210938 17.234375 0.1875 17.953125 0.523438 C 19.972656 1.449219 22.496094 2.085938 25.394531 2.34375 L 47.695312 4.34375 C 48.234375 4.390625 49.472656 4.230469 49.707031 2.351562 L 51.730469 2.53125 C 51.734375 2.464844 51.742188 2.398438 51.746094 2.328125 L 51.863281 1.050781 Z M 37.640625 -22.910156 L 27.804688 -23.792969 L 27.882812 -24.667969 L 37.722656 -23.785156 Z M 33.441406 -11.671875 L 19.292969 -12.941406 L 19.359375 -13.683594 L 33.507812 -12.414062 Z M 38.535156 -44.222656 L 24.722656 -45.460938 L 24.84375 -46.808594 L 38.65625 -45.570312 Z M 38.535156 -44.222656 "/></g></g></g><g fill="#991a14" fill-opacity="0.502"><g transform="translate(355.883186, 83.554323)"><g><path d="M 29.085938 -39.226562 L 22.84375 -39.992188 L 22.925781 -40.664062 L 29.167969 -39.894531 Z M 6.164062 -5.785156 L 1.664062 -6.339844 L 1.746094 -7.007812 L 6.246094 -6.457031 Z M 21.171875 -37.472656 L 21.953125 -43.851562 L 28.667969 -43.023438 L 28.84375 -44.433594 L 20.179688 -45.5 L 20.691406 -49.664062 L 25.726562 -49.042969 L 25.917969 -50.585938 C 26.175781 -52.667969 24.730469 -53.117188 24.058594 -53.203125 L 16.941406 -54.078125 C 16.269531 -54.160156 14.691406 -54.082031 14.4375 -52 L 14.246094 -50.457031 L 10.757812 -50.882812 L 10.242188 -46.722656 L 15.210938 -46.109375 L 15.039062 -44.699219 L 12.019531 -45.074219 L 11.234375 -38.695312 L 8.613281 -39.015625 L 8.101562 -34.851562 L 13.003906 -34.25 L 12.160156 -27.402344 L 6.453125 -28.105469 L 6.28125 -26.695312 L 8.496094 -26.421875 L 7.183594 -15.746094 L 9.535156 -15.457031 L 9.023438 -11.292969 L 6.671875 -11.582031 L 6.316406 -8.695312 L 9.273438 -8.332031 L 8.757812 -4.171875 L 6.140625 -4.492188 L 5.785156 -1.605469 C 5.53125 0.476562 6.839844 0.910156 7.445312 0.984375 L 13.621094 1.742188 C 14.160156 1.808594 15.535156 1.707031 15.789062 -0.375 L 16.144531 -3.261719 L 18.695312 -2.949219 L 19.207031 -7.113281 L 16.253906 -7.476562 L 16.609375 -10.363281 L 18.960938 -10.074219 L 19.472656 -14.234375 L 17.121094 -14.523438 L 18.433594 -25.199219 L 24.542969 -24.449219 L 24.71875 -25.859375 L 22.097656 -26.179688 L 22.941406 -33.027344 L 18.039062 -33.632812 L 18.550781 -37.792969 Z M 21.171875 -37.472656 "/></g></g></g><g fill="#991a14" fill-opacity="0.502"><g transform="translate(378.25836, 85.895442)"><g><path d="M 53.988281 6.832031 C 54.0625 6.363281 53.984375 6.007812 53.769531 5.632812 L 52.285156 2.515625 L 57.695312 3.382812 L 55.117188 -1.894531 L 51.175781 -2.527344 L 47.417969 -10.257812 L 50.757812 -9.722656 L 47.976562 -15.445312 L 43.636719 -16.140625 L 41.980469 -19.492188 L 47.191406 -18.652344 L 45.59375 -21.925781 L 47.871094 -24.164062 L 42.328125 -25.054688 L 47.714844 -30.421875 L 52.589844 -29.636719 L 57.066406 -34.058594 L 54.929688 -34.402344 L 55.007812 -34.457031 L 53.070312 -34.769531 L 57.484375 -39.199219 L 61.625 -38.53125 L 65.949219 -42.835938 C 66.027344 -42.894531 66.101562 -42.949219 66.113281 -43.015625 L 61.039062 -43.832031 C 61.378906 -44.257812 61.589844 -44.703125 61.609375 -45.25 C 61.601562 -46.070312 61.144531 -46.625 60.277344 -46.765625 L 52.929688 -47.945312 C 52.394531 -48.03125 51.839844 -47.984375 51.472656 -47.835938 C 51.097656 -47.625 50.707031 -47.34375 50.445312 -46.976562 L 49.148438 -45.746094 L 54.226562 -44.929688 L 49.667969 -40.453125 L 45.527344 -41.121094 L 41.050781 -36.699219 L 42.984375 -36.390625 L 42.910156 -36.332031 L 45.046875 -35.988281 L 40.566406 -31.570312 L 39.765625 -31.699219 L 37.097656 -37.269531 L 34.960938 -37.613281 L 34.972656 -37.679688 L 33.035156 -37.988281 L 30.367188 -43.558594 L 34.507812 -42.890625 L 31.785156 -48.535156 L 26.707031 -49.351562 L 26 -50.90625 C 25.796875 -51.347656 25.515625 -51.738281 25.226562 -52.058594 C 24.921875 -52.3125 24.476562 -52.519531 23.875 -52.617188 L 16.128906 -53.863281 C 15.261719 -54.003906 14.652344 -53.621094 14.457031 -52.832031 C 14.304688 -52.308594 14.359375 -51.816406 14.488281 -51.316406 L 19.5625 -50.5 C 19.617188 -50.425781 19.609375 -50.359375 19.664062 -50.28125 L 22.351562 -44.847656 L 18.210938 -45.511719 L 20.945312 -39.933594 L 22.882812 -39.621094 L 22.9375 -39.542969 L 25.007812 -39.210938 L 27.8125 -33.621094 L 22.933594 -34.40625 L 26.300781 -27.628906 L 31.84375 -26.738281 L 33.101562 -24.34375 L 30.160156 -21.390625 L 19.675781 -23.078125 L 17.054688 -20.414062 L 26.671875 -18.871094 L 22.238281 -14.308594 L 18.898438 -14.84375 L 12.839844 -8.691406 L 16.847656 -8.046875 L 12.679688 -3.855469 L 7.269531 -4.722656 L 4.878906 -2.230469 C 4.558594 -1.9375 4.371094 -1.625 4.230469 -1.167969 L 9.105469 -0.386719 C 9.085938 -0.253906 9.050781 -0.0507812 9.019531 0.148438 C 8.957031 0.960938 9.417969 1.515625 10.21875 1.644531 L 17.632812 2.835938 C 18.234375 2.933594 18.710938 2.941406 19.089844 2.726562 C 19.453125 2.578125 19.84375 2.300781 20.183594 1.875 L 20.59375 1.460938 L 15.785156 0.6875 L 19.15625 -2.8125 L 24.632812 -1.929688 L 28.734375 -6.136719 L 24.726562 -6.78125 L 30.789062 -12.933594 L 34.125 -12.394531 L 36.757812 -15.125 L 38.402344 -11.707031 L 35.0625 -12.246094 L 38.886719 -4.503906 L 42.828125 -3.871094 L 45.40625 1.410156 L 39.929688 0.527344 L 42.097656 4.917969 L 46.976562 5.703125 L 47.175781 6.148438 C 47.425781 6.734375 47.640625 7.113281 47.996094 7.445312 C 48.296875 7.699219 48.753906 7.839844 49.355469 7.9375 L 57.105469 9.183594 C 57.90625 9.3125 58.582031 8.941406 58.777344 8.148438 C 58.808594 7.949219 58.84375 7.75 58.863281 7.613281 Z M 23.503906 -24.3125 L 17.558594 -25.269531 L 17.839844 -27.003906 L 23.785156 -26.046875 Z M 57.164062 -24.859375 L 48.75 -26.214844 L 48.964844 -27.550781 L 57.378906 -26.195312 Z M 52.523438 -15.601562 L 46.847656 -16.515625 L 47.050781 -17.785156 L 52.730469 -16.871094 Z M 47.164062 -44.488281 L 36.144531 -46.257812 L 36.351562 -47.527344 L 47.371094 -45.757812 Z M 33.964844 2.242188 L 22.945312 0.46875 L 23.160156 -0.867188 L 34.179688 0.90625 Z M 33.964844 2.242188 "/></g></g></g><g fill="#991a14" fill-opacity="0.302"><g transform="translate(14.594521, 98.183093)"><g><path d="M 48.832031 -25.535156 L 48.636719 -26.738281 C 48.300781 -28.808594 47.730469 -30.632812 46.855469 -32.207031 L 53.667969 -33.3125 C 53.457031 -33.757812 53.183594 -34.191406 52.917969 -34.558594 L 48.042969 -33.769531 C 47.246094 -34.875 46.359375 -35.691406 45.351562 -36.417969 C 46.851562 -38.578125 47.496094 -41.355469 47.3125 -44.617188 L 48.847656 -44.863281 C 48.804688 -45.542969 48.761719 -46.222656 48.65625 -46.890625 L 48.308594 -49.027344 L 46.304688 -48.703125 L 46.046875 -50.304688 C 45.566406 -53.242188 44.777344 -55.582031 43.652344 -57.453125 L 48.792969 -58.289062 C 48.242188 -59.15625 47.632812 -59.949219 46.910156 -60.585938 C 46.347656 -61.113281 45.660156 -61.550781 44.914062 -61.90625 L 41.175781 -61.300781 C 40.132812 -61.816406 39 -62.042969 37.675781 -62.171875 C 36.5 -62.253906 35.273438 -62.195312 33.871094 -61.964844 L -3.71875 -55.867188 L -3.710938 -55.800781 C -4.234375 -55.644531 -4.746094 -55.425781 -5.191406 -55.214844 C -6.003906 -54.742188 -6.664062 -54.15625 -7.167969 -53.457031 L 4.652344 -55.375 C 4.371094 -54.984375 4.160156 -54.609375 3.957031 -54.164062 C 3.777344 -53.585938 3.605469 -52.941406 3.558594 -52.386719 L 3.789062 -50.984375 L -5.160156 -49.53125 L -3.707031 -40.585938 L 2.101562 -41.527344 L 2.773438 -37.386719 L 1.238281 -37.140625 L 2.972656 -26.457031 L 7.84375 -27.246094 L 8.0625 -25.910156 L 1.25 -24.804688 L 2.355469 -17.996094 L 11.105469 -19.414062 L 11.777344 -15.273438 L 3.027344 -13.855469 L 4.058594 -7.511719 L 8.796875 -8.28125 L 9.027344 -6.878906 L 2.484375 -5.816406 L 2.546875 -5.417969 C 2.800781 -4.703125 3.1875 -4.011719 3.617188 -3.464844 C 4.128906 -2.863281 4.757812 -2.347656 5.425781 -2.046875 L 11.769531 -3.074219 C 12.890625 -2.503906 14.167969 -2.230469 15.503906 -2.445312 L 45.550781 -7.324219 C 47.484375 -7.636719 49.167969 -8.253906 50.394531 -9.136719 C 50.519531 -9.226562 50.574219 -9.304688 50.695312 -9.390625 L 44.351562 -8.363281 C 45.457031 -9.160156 46.375 -10.265625 46.925781 -11.519531 C 47.183594 -12.042969 47.375 -12.554688 47.488281 -13.121094 L 54.03125 -14.183594 C 54.167969 -14.613281 54.289062 -15.113281 54.335938 -15.671875 L 49.597656 -14.902344 C 49.65625 -15.390625 49.769531 -15.957031 49.75 -16.503906 C 49.855469 -17.957031 49.71875 -19.648438 49.503906 -21.398438 L 54.511719 -22.210938 C 54.46875 -22.476562 54.421875 -22.742188 54.371094 -23.078125 L 53.839844 -26.347656 Z M 39.6875 -19.804688 C 39.78125 -18.792969 39.644531 -17.945312 39.253906 -17.402344 C 38.882812 -16.726562 37.992188 -16.308594 36.65625 -16.089844 L 13.421875 -12.320312 C 13.421875 -12.320312 13.34375 -12.375 13.300781 -12.644531 L 12.84375 -15.449219 L 21.523438 -16.855469 L 20.851562 -20.996094 L 12.105469 -19.578125 L 11 -26.386719 L 17.8125 -27.492188 L 17.59375 -28.828125 L 12.71875 -28.039062 L 10.984375 -38.722656 L 12.523438 -38.96875 L 11.851562 -43.109375 L 9.847656 -42.785156 L 9.097656 -47.390625 C 9.054688 -47.660156 9.101562 -47.804688 9.167969 -47.816406 L 32.339844 -51.574219 C 33.605469 -51.78125 34.597656 -51.597656 35.226562 -51.085938 C 35.859375 -50.570312 36.300781 -49.542969 36.527344 -48.144531 L 36.691406 -47.140625 L 38.691406 -47.464844 L 39.277344 -43.859375 C 39.308594 -43.660156 39.332031 -43.527344 39.363281 -43.328125 L 37.828125 -43.078125 C 37.933594 -41.996094 37.796875 -41.152344 37.351562 -40.53125 C 36.914062 -39.84375 35.832031 -39.328125 34.164062 -39.054688 L 21.210938 -36.953125 C 19.941406 -36.746094 19.101562 -35.582031 19.296875 -34.382812 L 20.132812 -29.238281 L 25.074219 -30.042969 L 25.128906 -29.707031 C 25.191406 -29.308594 25.3125 -28.984375 25.488281 -28.738281 L 18.679688 -27.632812 C 19.199219 -26.964844 20.007812 -26.617188 20.878906 -26.757812 L 33.832031 -28.859375 C 35.5 -29.128906 36.699219 -28.914062 37.410156 -28.34375 C 38.121094 -27.773438 38.558594 -26.75 38.796875 -25.277344 L 39.015625 -23.945312 L 47.761719 -25.363281 L 48.28125 -22.15625 C 48.335938 -21.824219 48.390625 -21.492188 48.433594 -21.222656 Z M 17.980469 -43.351562 L 30.265625 -45.34375 L 30.492188 -43.941406 L 18.207031 -41.949219 Z M 24.535156 -16.042969 L 35.6875 -17.851562 L 35.792969 -17.183594 L 24.644531 -15.375 Z M 18.804688 -20.527344 L 25.347656 -21.589844 L 25.46875 -20.855469 L 18.921875 -19.792969 Z M 11.25 -45.960938 L 17.859375 -47.03125 L 17.980469 -46.296875 L 11.371094 -45.226562 Z M 11.25 -45.960938 "/></g></g></g><g fill="#991a14" fill-opacity="0.302"><g transform="translate(73.201215, 88.584353)"><g><path d="M 53.75 -37.003906 L 53.363281 -40.566406 C 52.996094 -43.929688 52.40625 -46.859375 51.664062 -49.296875 L 46.757812 -48.765625 C 46.660156 -49.027344 46.628906 -49.292969 46.542969 -49.488281 C 46.035156 -51 45.421875 -52.292969 44.683594 -53.4375 L 47.777344 -53.773438 C 47.269531 -54.671875 46.710938 -55.425781 46.027344 -56.101562 C 45.722656 -56.410156 45.421875 -56.648438 45.125 -56.886719 L 48.824219 -57.289062 C 47.472656 -58.4375 45.894531 -59.21875 44.070312 -59.699219 C 41.90625 -60.210938 39.308594 -60.339844 36.347656 -60.015625 L 20.003906 -58.242188 C 17.046875 -57.921875 14.535156 -57.238281 12.53125 -56.273438 C 10.855469 -55.410156 9.546875 -54.316406 8.472656 -52.90625 L 4.773438 -52.503906 C 4.535156 -52.207031 4.226562 -51.902344 4.0625 -51.542969 C 3.539062 -50.738281 3.15625 -49.878906 2.855469 -48.894531 L -0.308594 -48.550781 C -0.78125 -47.273438 -1.105469 -45.878906 -1.273438 -44.292969 C -1.320312 -44.085938 -1.289062 -43.816406 -1.328125 -43.539062 L 3.582031 -44.074219 C 3.3125 -41.527344 3.367188 -38.539062 3.730469 -35.175781 L 4.117188 -31.613281 L -0.722656 -31.085938 L -0.546875 -29.472656 L 2.613281 -29.816406 L 3.476562 -21.878906 L 1.054688 -21.617188 L 1.074219 -21.414062 C 1.257812 -19.734375 1.492188 -18.195312 1.78125 -16.796875 L 3.867188 -17.023438 C 4.207031 -15.15625 4.65625 -13.503906 5.148438 -12.125 C 5.445312 -11.273438 5.734375 -10.488281 6.089844 -9.710938 L 1.71875 -9.238281 C 1.980469 -8.71875 2.238281 -8.203125 2.566406 -7.695312 L 8.753906 -8.367188 C 9.257812 -7.46875 9.882812 -6.722656 10.503906 -6.039062 C 11.34375 -5.179688 12.234375 -4.527344 13.246094 -3.957031 L 9.617188 -3.5625 C 10.480469 -3.113281 11.480469 -2.675781 12.527344 -2.449219 C 14.625 -1.929688 17.222656 -1.804688 20.183594 -2.125 L 36.589844 -3.90625 C 39.550781 -4.230469 42.0625 -4.910156 44.066406 -5.875 C 45.039062 -6.320312 45.855469 -6.953125 46.671875 -7.585938 L 50.300781 -7.980469 C 51.171875 -8.757812 51.898438 -9.585938 52.542969 -10.539062 C 53.058594 -11.410156 53.441406 -12.269531 53.8125 -13.261719 L 49.371094 -12.78125 C 49.582031 -13.347656 49.726562 -13.90625 49.871094 -14.46875 L 52.492188 -14.753906 C 52.671875 -15.589844 52.855469 -16.425781 52.894531 -17.3125 C 53.070312 -18.828125 53.164062 -20.472656 53.09375 -22.371094 L 55.109375 -22.589844 C 55.09375 -24.015625 54.992188 -25.570312 54.808594 -27.253906 L 54.785156 -27.453125 L 53.644531 -27.328125 L 52.78125 -35.265625 L 50.292969 -34.996094 L 50.117188 -36.609375 Z M 40.273438 -33.90625 L 41.136719 -25.972656 L 44.765625 -26.367188 L 44.921875 -24.953125 C 45.058594 -23.675781 45.117188 -22.523438 45.15625 -21.507812 L 43.140625 -21.289062 C 43.132812 -20.746094 43.125 -20.199219 43.105469 -19.722656 C 42.96875 -18.480469 42.75 -17.367188 42.285156 -16.636719 C 41.894531 -15.847656 41.273438 -15.304688 40.429688 -14.9375 C 39.589844 -14.507812 38.460938 -14.25 37.050781 -14.09375 L 21.3125 -12.386719 C 19.902344 -12.234375 18.742188 -12.242188 17.765625 -12.476562 C 16.929688 -12.65625 16.207031 -13.054688 15.652344 -13.746094 C 15.042969 -14.359375 14.523438 -15.390625 14.1875 -16.578125 C 14.070312 -17.042969 13.945312 -17.574219 13.820312 -18.105469 L 11.734375 -17.878906 C 11.492188 -18.871094 11.300781 -20.007812 11.160156 -21.285156 L 11.007812 -22.699219 L 13.429688 -22.960938 L 12.566406 -30.894531 L 27.695312 -32.539062 L 27.523438 -34.152344 L 14.140625 -32.699219 L 13.628906 -37.40625 C 13.414062 -39.359375 13.300781 -41.046875 13.421875 -42.421875 C 13.5 -43.585938 13.742188 -44.496094 14.074219 -45.214844 L 9.164062 -44.679688 C 9.214844 -44.820312 9.277344 -44.894531 9.328125 -45.039062 C 9.726562 -45.761719 10.347656 -46.304688 11.183594 -46.738281 C 12.03125 -47.101562 13.152344 -47.425781 14.5625 -47.578125 L 30.300781 -49.289062 C 31.710938 -49.441406 32.878906 -49.367188 33.847656 -49.199219 C 34.691406 -48.949219 35.414062 -48.550781 35.960938 -47.929688 C 36.042969 -47.804688 36.117188 -47.742188 36.199219 -47.617188 L 41.105469 -48.148438 C 41.582031 -47.523438 42.023438 -46.617188 42.339844 -45.5625 C 42.757812 -44.246094 43.007812 -42.574219 43.21875 -40.621094 L 43.730469 -35.914062 L 38.417969 -35.335938 L 38.589844 -33.722656 Z M 37.769531 -21.25 L 27.949219 -20.183594 L 27.855469 -21.058594 L 37.675781 -22.125 Z M 25.28125 -16.558594 L 18.894531 -15.867188 L 18.84375 -16.335938 L 25.230469 -17.03125 Z M 35.378906 -43.242188 L 22.601562 -41.851562 L 22.464844 -43.128906 L 35.242188 -44.519531 Z M 25.671875 -25.515625 L 16.253906 -24.492188 L 16.183594 -25.164062 L 25.597656 -26.1875 Z M 25.671875 -25.515625 "/></g></g></g><g fill="#991a14" fill-opacity="0.302"><g transform="translate(134.907405, 81.826839)"><g><path d="M 55.664062 -34.058594 L 55.46875 -37.636719 C 55.285156 -41.015625 54.851562 -43.972656 54.242188 -46.445312 L 49.3125 -46.179688 C 49.230469 -46.445312 49.214844 -46.714844 49.136719 -46.914062 C 48.714844 -48.449219 48.167969 -49.773438 47.492188 -50.957031 L 50.601562 -51.125 C 50.144531 -52.050781 49.625 -52.835938 48.976562 -53.542969 C 48.691406 -53.867188 48.40625 -54.121094 48.121094 -54.378906 L 51.835938 -54.582031 C 50.550781 -55.796875 49.011719 -56.664062 47.21875 -57.242188 C 45.085938 -57.871094 42.496094 -58.136719 39.523438 -57.976562 L 23.109375 -57.082031 C 20.136719 -56.917969 17.59375 -56.375 15.539062 -55.515625 C 13.820312 -54.746094 12.453125 -53.722656 11.308594 -52.375 L 7.59375 -52.171875 C 7.335938 -51.886719 7.015625 -51.597656 6.828125 -51.25 C 6.261719 -50.472656 5.832031 -49.636719 5.480469 -48.667969 L 2.304688 -48.496094 C 1.761719 -47.246094 1.363281 -45.871094 1.109375 -44.300781 C 1.054688 -44.09375 1.070312 -43.824219 1.015625 -43.546875 L 5.945312 -43.816406 C 5.542969 -41.289062 5.433594 -38.300781 5.617188 -34.925781 L 5.8125 -31.34375 L 0.949219 -31.078125 L 1.039062 -29.457031 L 4.210938 -29.632812 L 4.648438 -21.660156 L 2.214844 -21.527344 L 2.226562 -21.324219 C 2.316406 -19.636719 2.46875 -18.085938 2.683594 -16.675781 L 4.777344 -16.789062 C 5.015625 -14.90625 5.375 -13.230469 5.792969 -11.832031 C 6.042969 -10.964844 6.289062 -10.164062 6.601562 -9.371094 L 2.210938 -9.128906 C 2.445312 -8.601562 2.675781 -8.070312 2.976562 -7.546875 L 9.191406 -7.886719 C 9.648438 -6.960938 10.230469 -6.179688 10.8125 -5.464844 C 11.605469 -4.5625 12.457031 -3.863281 13.441406 -3.238281 L 9.792969 -3.039062 C 10.632812 -2.542969 11.609375 -2.054688 12.640625 -1.773438 C 14.707031 -1.140625 17.296875 -0.875 20.265625 -1.035156 L 36.75 -1.933594 C 39.722656 -2.09375 42.265625 -2.640625 44.320312 -3.496094 C 45.3125 -3.890625 46.164062 -4.476562 47.011719 -5.066406 L 50.660156 -5.265625 C 51.566406 -5.992188 52.335938 -6.777344 53.03125 -7.699219 C 53.597656 -8.542969 54.023438 -9.378906 54.445312 -10.347656 L 49.988281 -10.105469 C 50.230469 -10.660156 50.402344 -11.210938 50.574219 -11.765625 L 53.210938 -11.90625 C 53.4375 -12.734375 53.660156 -13.558594 53.75 -14.445312 C 54.007812 -15.949219 54.1875 -17.582031 54.21875 -19.480469 L 56.246094 -19.59375 C 56.304688 -21.019531 56.289062 -22.574219 56.195312 -24.265625 L 56.183594 -24.46875 L 55.035156 -24.40625 L 54.601562 -32.375 L 52.101562 -32.238281 L 52.015625 -33.859375 Z M 42.039062 -31.691406 L 42.472656 -23.71875 L 46.121094 -23.917969 L 46.199219 -22.5 C 46.265625 -21.21875 46.261719 -20.066406 46.25 -19.046875 L 44.222656 -18.9375 C 44.183594 -18.394531 44.148438 -17.851562 44.105469 -17.375 C 43.902344 -16.144531 43.621094 -15.042969 43.117188 -14.339844 C 42.6875 -13.570312 42.035156 -13.0625 41.171875 -12.742188 C 40.3125 -12.355469 39.171875 -12.160156 37.753906 -12.082031 L 21.949219 -11.222656 C 20.53125 -11.144531 19.375 -11.21875 18.410156 -11.503906 C 17.585938 -11.730469 16.882812 -12.164062 16.371094 -12.882812 C 15.792969 -13.527344 15.328125 -14.585938 15.058594 -15.792969 C 14.96875 -16.261719 14.871094 -16.796875 14.773438 -17.335938 L 12.679688 -17.21875 C 12.488281 -18.226562 12.359375 -19.371094 12.289062 -20.65625 L 12.210938 -22.074219 L 14.644531 -22.207031 L 14.210938 -30.175781 L 29.40625 -31.003906 L 29.320312 -32.625 L 15.878906 -31.890625 L 15.621094 -36.621094 C 15.511719 -38.578125 15.488281 -40.273438 15.6875 -41.636719 C 15.824219 -42.796875 16.117188 -43.691406 16.484375 -44.390625 L 11.554688 -44.121094 C 11.613281 -44.261719 11.675781 -44.332031 11.738281 -44.472656 C 12.171875 -45.171875 12.824219 -45.683594 13.683594 -46.066406 C 14.546875 -46.386719 15.683594 -46.652344 17.101562 -46.726562 L 32.90625 -47.589844 C 34.328125 -47.664062 35.484375 -47.527344 36.445312 -47.308594 C 37.273438 -47.011719 37.976562 -46.578125 38.484375 -45.925781 C 38.5625 -45.796875 38.632812 -45.730469 38.707031 -45.601562 L 43.636719 -45.871094 C 44.078125 -45.214844 44.46875 -44.289062 44.730469 -43.21875 C 45.074219 -41.882812 45.234375 -40.199219 45.339844 -38.238281 L 45.597656 -33.511719 L 40.261719 -33.21875 L 40.351562 -31.597656 Z M 38.859375 -19.1875 L 28.996094 -18.652344 L 28.949219 -19.527344 L 38.808594 -20.066406 Z M 26.136719 -15.175781 L 19.71875 -14.828125 L 19.695312 -15.300781 L 26.109375 -15.648438 Z M 37.65625 -41.277344 L 24.820312 -40.578125 L 24.75 -41.859375 L 37.585938 -42.558594 Z M 27.007812 -24.097656 L 17.550781 -23.582031 L 17.511719 -24.257812 L 26.96875 -24.773438 Z M 27.007812 -24.097656 "/></g></g></g><g fill="#991a14" fill-opacity="0.302"><g transform="translate(196.948307, 78.512024)"><g><path d="M 48.148438 -3.796875 L 48.128906 -7.855469 C 48.121094 -9.953125 46.765625 -10.21875 46.226562 -10.214844 L 24.242188 -10.117188 C 22.820312 -10.113281 21.601562 -10.242188 20.722656 -10.578125 L 17.269531 -10.5625 C 16.457031 -10.828125 15.78125 -11.367188 15.304688 -12.039062 C 14.757812 -12.78125 14.414062 -13.796875 14.140625 -15.011719 C 14.140625 -15.011719 14.140625 -15.011719 14.140625 -15.078125 L 17.117188 -15.09375 C 16.90625 -16.378906 16.765625 -18.066406 16.753906 -20.097656 L 16.746094 -22.398438 L 22.699219 -22.421875 L 22.691406 -23.910156 L 16.941406 -23.886719 L 16.890625 -35.386719 L 14.050781 -35.375 L 14.03125 -39.90625 L 26.273438 -39.960938 L 26.261719 -43.003906 L 14.964844 -42.953125 L 14.945312 -47.484375 L 16.839844 -47.496094 L 16.820312 -51.960938 L 13.367188 -51.945312 L 13.363281 -53.433594 C 13.351562 -55.597656 12 -55.792969 11.457031 -55.792969 L 5.234375 -55.765625 C 4.625 -55.761719 3.273438 -55.550781 3.28125 -53.386719 L 3.289062 -51.898438 L 6.808594 -51.914062 L 6.828125 -47.449219 L 0.875 -47.425781 L 0.894531 -42.890625 L 6.101562 -42.914062 L 6.117188 -39.871094 L 3.949219 -39.863281 L 3.972656 -35.328125 L 6.878906 -35.34375 L 6.929688 -23.84375 L 3.546875 -23.828125 L 3.554688 -22.339844 L 6.734375 -22.351562 L 6.738281 -21.203125 C 6.75 -18.902344 6.894531 -16.875 7.105469 -15.050781 L 4.058594 -15.035156 C 4.269531 -13.75 4.410156 -12.535156 4.683594 -11.519531 C 4.753906 -11.113281 4.890625 -10.84375 4.960938 -10.507812 L 8.34375 -10.523438 C 8.960938 -8.292969 9.847656 -6.335938 11.074219 -4.917969 C 11.414062 -4.445312 11.753906 -4.042969 12.160156 -3.640625 L 5.667969 -3.609375 C 6.277344 -3.070312 6.957031 -2.601562 7.703125 -2.132812 L 15.820312 -2.167969 C 16.5 -1.765625 17.175781 -1.429688 17.921875 -1.160156 C 20.023438 -0.425781 22.59375 -0.03125 25.503906 -0.0429688 L 47.894531 -0.144531 C 48.433594 -0.144531 49.652344 -0.421875 49.710938 -2.316406 L 51.738281 -2.324219 C 51.738281 -2.390625 51.738281 -2.460938 51.738281 -2.527344 L 51.734375 -3.8125 Z M 35.332031 -26.335938 L 25.453125 -26.292969 L 25.449219 -27.171875 L 35.328125 -27.214844 Z M 32.203125 -14.753906 L 17.996094 -14.691406 L 17.992188 -15.433594 L 32.199219 -15.496094 Z M 34.222656 -47.636719 L 20.355469 -47.578125 L 20.347656 -48.929688 L 34.214844 -48.992188 Z M 34.222656 -47.636719 "/></g></g></g><g fill="#991a14" fill-opacity="0.302"><g transform="translate(250.197811, 78.213806)"><g><path d="M 49.164062 -51.128906 L 49.171875 -51.328125 C 49.265625 -53.492188 47.988281 -53.75 47.378906 -53.777344 L 8.585938 -55.425781 C 7.976562 -55.453125 6.683594 -55.234375 6.589844 -53.074219 L 6.585938 -52.9375 L 14.152344 -52.617188 L 14.09375 -51.195312 L 6.523438 -51.519531 L 6.367188 -47.867188 C 6.359375 -47.667969 6.355469 -47.53125 6.417969 -47.394531 L 10.605469 -47.214844 C 10.738281 -45.515625 11.878906 -45.265625 12.351562 -45.246094 L 53.714844 -43.484375 C 54.1875 -43.464844 55.34375 -43.621094 55.617188 -45.300781 L 48.925781 -45.585938 C 48.933594 -45.71875 48.9375 -45.855469 48.945312 -45.992188 L 49.101562 -49.707031 L 53.5625 -49.519531 L 53.625 -50.9375 Z M 49.28125 -25.257812 L 49.34375 -26.675781 L 53.125 -26.515625 L 53.210938 -28.476562 C 53.300781 -30.570312 51.960938 -30.898438 51.417969 -30.921875 L 16.542969 -32.335938 C 14.644531 -32.28125 12.839844 -31.277344 11.824219 -29.695312 C 11.535156 -29.234375 11.3125 -28.769531 11.15625 -28.300781 L 7.371094 -28.460938 C 7.296875 -28.328125 7.296875 -28.261719 7.289062 -28.128906 L 7.175781 -27.046875 L 13.933594 -26.761719 L 13.574219 -19.871094 L 15.601562 -19.785156 L 15.421875 -15.59375 L 5.625 -16.011719 L 5.28125 -9.59375 L 13.121094 -9.257812 L 13.0625 -7.839844 L 7.046875 -8.097656 L 6.867188 -3.90625 L 13.558594 -3.621094 L 13.480469 -1.730469 C 13.390625 0.367188 14.730469 0.695312 15.339844 0.71875 L 21.488281 0.980469 C 22.097656 1.007812 23.394531 0.792969 23.480469 -1.304688 C 23.480469 -1.304688 23.511719 -1.980469 23.5625 -3.195312 L 16.871094 -3.480469 C 16.917969 -4.5625 16.980469 -6.046875 17.050781 -7.671875 L 36.175781 -6.855469 C 36.195312 -7.332031 36.214844 -7.804688 36.238281 -8.277344 L 15.285156 -9.167969 C 15.375 -11.261719 15.535156 -13.488281 15.625 -15.585938 L 25.359375 -15.171875 C 25.425781 -16.726562 25.554688 -18.210938 25.605469 -19.359375 L 23.578125 -19.445312 C 23.644531 -21.066406 23.6875 -22.082031 23.6875 -22.082031 L 52.683594 -20.847656 C 53.222656 -20.824219 54.582031 -20.96875 54.671875 -23.066406 L 54.757812 -25.023438 Z M 45.058594 -34.171875 L 22.144531 -35.144531 L 22.191406 -36.226562 L 45.101562 -35.253906 Z M 46.433594 -14.003906 L 31.496094 -14.640625 L 31.542969 -15.722656 L 46.480469 -15.085938 Z M 29.550781 -38.960938 L 15.496094 -39.558594 L 15.523438 -40.234375 L 29.582031 -39.636719 Z M 29.550781 -38.960938 "/></g></g></g><g fill="#991a14" fill-opacity="0.302"><g transform="translate(305.089681, 80.524012)"><g><path d="M 48.292969 0.730469 L 48.652344 -3.3125 C 48.839844 -5.402344 47.519531 -5.792969 46.980469 -5.839844 L 25.082031 -7.804688 C 23.667969 -7.929688 22.464844 -8.171875 21.621094 -8.589844 L 18.183594 -8.898438 C 17.398438 -9.238281 16.773438 -9.839844 16.363281 -10.554688 C 15.890625 -11.34375 15.644531 -12.386719 15.484375 -13.621094 C 15.484375 -13.621094 15.484375 -13.621094 15.488281 -13.6875 L 18.453125 -13.421875 C 18.367188 -14.722656 18.382812 -16.417969 18.5625 -18.4375 L 18.769531 -20.730469 L 24.699219 -20.199219 L 24.832031 -21.679688 L 19.105469 -22.195312 L 20.132812 -33.648438 L 17.300781 -33.902344 L 17.707031 -38.417969 L 29.902344 -37.324219 L 30.171875 -40.355469 L 18.921875 -41.363281 L 19.328125 -45.878906 L 21.210938 -45.707031 L 21.613281 -50.15625 L 18.175781 -50.464844 L 18.308594 -51.945312 C 18.5 -54.101562 17.171875 -54.425781 16.632812 -54.472656 L 10.433594 -55.027344 C 9.828125 -55.082031 8.460938 -55 8.269531 -52.84375 L 8.136719 -51.363281 L 11.640625 -51.050781 L 11.242188 -46.601562 L 5.3125 -47.132812 L 4.90625 -42.621094 L 10.09375 -42.15625 L 9.824219 -39.121094 L 7.667969 -39.316406 L 7.261719 -34.800781 L 10.160156 -34.542969 L 9.132812 -23.089844 L 5.765625 -23.390625 L 5.632812 -21.90625 L 8.796875 -21.625 L 8.695312 -20.480469 C 8.488281 -18.1875 8.445312 -16.15625 8.484375 -14.316406 L 5.449219 -14.589844 C 5.539062 -13.289062 5.5625 -12.066406 5.742188 -11.03125 C 5.773438 -10.621094 5.886719 -10.339844 5.921875 -9.996094 L 9.289062 -9.695312 C 9.699219 -7.417969 10.398438 -5.382812 11.484375 -3.859375 C 11.777344 -3.359375 12.078125 -2.925781 12.449219 -2.484375 L 5.980469 -3.0625 C 6.539062 -2.46875 7.167969 -1.9375 7.867188 -1.398438 L 15.953125 -0.675781 C 16.589844 -0.210938 17.234375 0.1875 17.953125 0.523438 C 19.972656 1.449219 22.496094 2.085938 25.394531 2.34375 L 47.695312 4.34375 C 48.234375 4.390625 49.472656 4.230469 49.707031 2.351562 L 51.730469 2.53125 C 51.734375 2.464844 51.742188 2.398438 51.746094 2.328125 L 51.863281 1.050781 Z M 37.640625 -22.910156 L 27.804688 -23.792969 L 27.882812 -24.667969 L 37.722656 -23.785156 Z M 33.441406 -11.671875 L 19.292969 -12.941406 L 19.359375 -13.683594 L 33.507812 -12.414062 Z M 38.535156 -44.222656 L 24.722656 -45.460938 L 24.84375 -46.808594 L 38.65625 -45.570312 Z M 38.535156 -44.222656 "/></g></g></g><g fill="#991a14" fill-opacity="0.302"><g transform="translate(358.314653, 85.523299)"><g><path d="M 29.085938 -39.226562 L 22.84375 -39.992188 L 22.925781 -40.664062 L 29.167969 -39.894531 Z M 6.164062 -5.785156 L 1.664062 -6.339844 L 1.746094 -7.007812 L 6.246094 -6.457031 Z M 21.171875 -37.472656 L 21.953125 -43.851562 L 28.667969 -43.023438 L 28.84375 -44.433594 L 20.179688 -45.5 L 20.691406 -49.664062 L 25.726562 -49.042969 L 25.917969 -50.585938 C 26.175781 -52.667969 24.730469 -53.117188 24.058594 -53.203125 L 16.941406 -54.078125 C 16.269531 -54.160156 14.691406 -54.082031 14.4375 -52 L 14.246094 -50.457031 L 10.757812 -50.882812 L 10.242188 -46.722656 L 15.210938 -46.109375 L 15.039062 -44.699219 L 12.019531 -45.074219 L 11.234375 -38.695312 L 8.613281 -39.015625 L 8.101562 -34.851562 L 13.003906 -34.25 L 12.160156 -27.402344 L 6.453125 -28.105469 L 6.28125 -26.695312 L 8.496094 -26.421875 L 7.183594 -15.746094 L 9.535156 -15.457031 L 9.023438 -11.292969 L 6.671875 -11.582031 L 6.316406 -8.695312 L 9.273438 -8.332031 L 8.757812 -4.171875 L 6.140625 -4.492188 L 5.785156 -1.605469 C 5.53125 0.476562 6.839844 0.910156 7.445312 0.984375 L 13.621094 1.742188 C 14.160156 1.808594 15.535156 1.707031 15.789062 -0.375 L 16.144531 -3.261719 L 18.695312 -2.949219 L 19.207031 -7.113281 L 16.253906 -7.476562 L 16.609375 -10.363281 L 18.960938 -10.074219 L 19.472656 -14.234375 L 17.121094 -14.523438 L 18.433594 -25.199219 L 24.542969 -24.449219 L 24.71875 -25.859375 L 22.097656 -26.179688 L 22.941406 -33.027344 L 18.039062 -33.632812 L 18.550781 -37.792969 Z M 21.171875 -37.472656 "/></g></g></g><g fill="#991a14" fill-opacity="0.302"><g transform="translate(380.689829, 87.864416)"><g><path d="M 53.988281 6.832031 C 54.0625 6.363281 53.984375 6.007812 53.769531 5.632812 L 52.285156 2.515625 L 57.695312 3.382812 L 55.117188 -1.894531 L 51.175781 -2.527344 L 47.417969 -10.257812 L 50.757812 -9.722656 L 47.976562 -15.445312 L 43.636719 -16.140625 L 41.980469 -19.492188 L 47.191406 -18.652344 L 45.59375 -21.925781 L 47.871094 -24.164062 L 42.328125 -25.054688 L 47.714844 -30.421875 L 52.589844 -29.636719 L 57.066406 -34.058594 L 54.929688 -34.402344 L 55.007812 -34.457031 L 53.070312 -34.769531 L 57.484375 -39.199219 L 61.625 -38.53125 L 65.949219 -42.835938 C 66.027344 -42.894531 66.101562 -42.949219 66.113281 -43.015625 L 61.039062 -43.832031 C 61.378906 -44.257812 61.589844 -44.703125 61.609375 -45.25 C 61.601562 -46.070312 61.144531 -46.625 60.277344 -46.765625 L 52.929688 -47.945312 C 52.394531 -48.03125 51.839844 -47.984375 51.472656 -47.835938 C 51.097656 -47.625 50.707031 -47.34375 50.445312 -46.976562 L 49.148438 -45.746094 L 54.226562 -44.929688 L 49.667969 -40.453125 L 45.527344 -41.121094 L 41.050781 -36.699219 L 42.984375 -36.390625 L 42.910156 -36.332031 L 45.046875 -35.988281 L 40.566406 -31.570312 L 39.765625 -31.699219 L 37.097656 -37.269531 L 34.960938 -37.613281 L 34.972656 -37.679688 L 33.035156 -37.988281 L 30.367188 -43.558594 L 34.507812 -42.890625 L 31.785156 -48.535156 L 26.707031 -49.351562 L 26 -50.90625 C 25.796875 -51.347656 25.515625 -51.738281 25.226562 -52.058594 C 24.921875 -52.3125 24.476562 -52.519531 23.875 -52.617188 L 16.128906 -53.863281 C 15.261719 -54.003906 14.652344 -53.621094 14.457031 -52.832031 C 14.304688 -52.308594 14.359375 -51.816406 14.488281 -51.316406 L 19.5625 -50.5 C 19.617188 -50.425781 19.609375 -50.359375 19.664062 -50.28125 L 22.351562 -44.847656 L 18.210938 -45.511719 L 20.945312 -39.933594 L 22.882812 -39.621094 L 22.9375 -39.542969 L 25.007812 -39.210938 L 27.8125 -33.621094 L 22.933594 -34.40625 L 26.300781 -27.628906 L 31.84375 -26.738281 L 33.101562 -24.34375 L 30.160156 -21.390625 L 19.675781 -23.078125 L 17.054688 -20.414062 L 26.671875 -18.871094 L 22.238281 -14.308594 L 18.898438 -14.84375 L 12.839844 -8.691406 L 16.847656 -8.046875 L 12.679688 -3.855469 L 7.269531 -4.722656 L 4.878906 -2.230469 C 4.558594 -1.9375 4.371094 -1.625 4.230469 -1.167969 L 9.105469 -0.386719 C 9.085938 -0.253906 9.050781 -0.0507812 9.019531 0.148438 C 8.957031 0.960938 9.417969 1.515625 10.21875 1.644531 L 17.632812 2.835938 C 18.234375 2.933594 18.710938 2.941406 19.089844 2.726562 C 19.453125 2.578125 19.84375 2.300781 20.183594 1.875 L 20.59375 1.460938 L 15.785156 0.6875 L 19.15625 -2.8125 L 24.632812 -1.929688 L 28.734375 -6.136719 L 24.726562 -6.78125 L 30.789062 -12.933594 L 34.125 -12.394531 L 36.757812 -15.125 L 38.402344 -11.707031 L 35.0625 -12.246094 L 38.886719 -4.503906 L 42.828125 -3.871094 L 45.40625 1.410156 L 39.929688 0.527344 L 42.097656 4.917969 L 46.976562 5.703125 L 47.175781 6.148438 C 47.425781 6.734375 47.640625 7.113281 47.996094 7.445312 C 48.296875 7.699219 48.753906 7.839844 49.355469 7.9375 L 57.105469 9.183594 C 57.90625 9.3125 58.582031 8.941406 58.777344 8.148438 C 58.808594 7.949219 58.84375 7.75 58.863281 7.613281 Z M 23.503906 -24.3125 L 17.558594 -25.269531 L 17.839844 -27.003906 L 23.785156 -26.046875 Z M 57.164062 -24.859375 L 48.75 -26.214844 L 48.964844 -27.550781 L 57.378906 -26.195312 Z M 52.523438 -15.601562 L 46.847656 -16.515625 L 47.050781 -17.785156 L 52.730469 -16.871094 Z M 47.164062 -44.488281 L 36.144531 -46.257812 L 36.351562 -47.527344 L 47.371094 -45.757812 Z M 33.964844 2.242188 L 22.945312 0.46875 L 23.160156 -0.867188 L 34.179688 0.90625 Z M 33.964844 2.242188 "/></g></g></g><g fill="#e61c12" fill-opacity="1"><g transform="translate(9.731567, 94.24514)"><g><path d="M 48.832031 -25.535156 L 48.636719 -26.738281 C 48.300781 -28.808594 47.730469 -30.632812 46.855469 -32.207031 L 53.667969 -33.3125 C 53.457031 -33.757812 53.183594 -34.191406 52.917969 -34.558594 L 48.042969 -33.769531 C 47.246094 -34.875 46.359375 -35.691406 45.351562 -36.417969 C 46.851562 -38.578125 47.496094 -41.355469 47.3125 -44.617188 L 48.847656 -44.863281 C 48.804688 -45.542969 48.761719 -46.222656 48.65625 -46.890625 L 48.308594 -49.027344 L 46.304688 -48.703125 L 46.046875 -50.304688 C 45.566406 -53.242188 44.777344 -55.582031 43.652344 -57.453125 L 48.792969 -58.289062 C 48.242188 -59.15625 47.632812 -59.949219 46.910156 -60.585938 C 46.347656 -61.113281 45.660156 -61.550781 44.914062 -61.90625 L 41.175781 -61.300781 C 40.132812 -61.816406 39 -62.042969 37.675781 -62.171875 C 36.5 -62.253906 35.273438 -62.195312 33.871094 -61.964844 L -3.71875 -55.867188 L -3.710938 -55.800781 C -4.234375 -55.644531 -4.746094 -55.425781 -5.191406 -55.214844 C -6.003906 -54.742188 -6.664062 -54.15625 -7.167969 -53.457031 L 4.652344 -55.375 C 4.371094 -54.984375 4.160156 -54.609375 3.957031 -54.164062 C 3.777344 -53.585938 3.605469 -52.941406 3.558594 -52.386719 L 3.789062 -50.984375 L -5.160156 -49.53125 L -3.707031 -40.585938 L 2.101562 -41.527344 L 2.773438 -37.386719 L 1.238281 -37.140625 L 2.972656 -26.457031 L 7.84375 -27.246094 L 8.0625 -25.910156 L 1.25 -24.804688 L 2.355469 -17.996094 L 11.105469 -19.414062 L 11.777344 -15.273438 L 3.027344 -13.855469 L 4.058594 -7.511719 L 8.796875 -8.28125 L 9.027344 -6.878906 L 2.484375 -5.816406 L 2.546875 -5.417969 C 2.800781 -4.703125 3.1875 -4.011719 3.617188 -3.464844 C 4.128906 -2.863281 4.757812 -2.347656 5.425781 -2.046875 L 11.769531 -3.074219 C 12.890625 -2.503906 14.167969 -2.230469 15.503906 -2.445312 L 45.550781 -7.324219 C 47.484375 -7.636719 49.167969 -8.253906 50.394531 -9.136719 C 50.519531 -9.226562 50.574219 -9.304688 50.695312 -9.390625 L 44.351562 -8.363281 C 45.457031 -9.160156 46.375 -10.265625 46.925781 -11.519531 C 47.183594 -12.042969 47.375 -12.554688 47.488281 -13.121094 L 54.03125 -14.183594 C 54.167969 -14.613281 54.289062 -15.113281 54.335938 -15.671875 L 49.597656 -14.902344 C 49.65625 -15.390625 49.769531 -15.957031 49.75 -16.503906 C 49.855469 -17.957031 49.71875 -19.648438 49.503906 -21.398438 L 54.511719 -22.210938 C 54.46875 -22.476562 54.421875 -22.742188 54.371094 -23.078125 L 53.839844 -26.347656 Z M 39.6875 -19.804688 C 39.78125 -18.792969 39.644531 -17.945312 39.253906 -17.402344 C 38.882812 -16.726562 37.992188 -16.308594 36.65625 -16.089844 L 13.421875 -12.320312 C 13.421875 -12.320312 13.34375 -12.375 13.300781 -12.644531 L 12.84375 -15.449219 L 21.523438 -16.855469 L 20.851562 -20.996094 L 12.105469 -19.578125 L 11 -26.386719 L 17.8125 -27.492188 L 17.59375 -28.828125 L 12.71875 -28.039062 L 10.984375 -38.722656 L 12.523438 -38.96875 L 11.851562 -43.109375 L 9.847656 -42.785156 L 9.097656 -47.390625 C 9.054688 -47.660156 9.101562 -47.804688 9.167969 -47.816406 L 32.339844 -51.574219 C 33.605469 -51.78125 34.597656 -51.597656 35.226562 -51.085938 C 35.859375 -50.570312 36.300781 -49.542969 36.527344 -48.144531 L 36.691406 -47.140625 L 38.691406 -47.464844 L 39.277344 -43.859375 C 39.308594 -43.660156 39.332031 -43.527344 39.363281 -43.328125 L 37.828125 -43.078125 C 37.933594 -41.996094 37.796875 -41.152344 37.351562 -40.53125 C 36.914062 -39.84375 35.832031 -39.328125 34.164062 -39.054688 L 21.210938 -36.953125 C 19.941406 -36.746094 19.101562 -35.582031 19.296875 -34.382812 L 20.132812 -29.238281 L 25.074219 -30.042969 L 25.128906 -29.707031 C 25.191406 -29.308594 25.3125 -28.984375 25.488281 -28.738281 L 18.679688 -27.632812 C 19.199219 -26.964844 20.007812 -26.617188 20.878906 -26.757812 L 33.832031 -28.859375 C 35.5 -29.128906 36.699219 -28.914062 37.410156 -28.34375 C 38.121094 -27.773438 38.558594 -26.75 38.796875 -25.277344 L 39.015625 -23.945312 L 47.761719 -25.363281 L 48.28125 -22.15625 C 48.335938 -21.824219 48.390625 -21.492188 48.433594 -21.222656 Z M 17.980469 -43.351562 L 30.265625 -45.34375 L 30.492188 -43.941406 L 18.207031 -41.949219 Z M 24.535156 -16.042969 L 35.6875 -17.851562 L 35.792969 -17.183594 L 24.644531 -15.375 Z M 18.804688 -20.527344 L 25.347656 -21.589844 L 25.46875 -20.855469 L 18.921875 -19.792969 Z M 11.25 -45.960938 L 17.859375 -47.03125 L 17.980469 -46.296875 L 11.371094 -45.226562 Z M 11.25 -45.960938 "/></g></g></g><g fill="#e61c12" fill-opacity="1"><g transform="translate(68.338255, 84.646403)"><g><path d="M 53.75 -37.003906 L 53.363281 -40.566406 C 52.996094 -43.929688 52.40625 -46.859375 51.664062 -49.296875 L 46.757812 -48.765625 C 46.660156 -49.027344 46.628906 -49.292969 46.542969 -49.488281 C 46.035156 -51 45.421875 -52.292969 44.683594 -53.4375 L 47.777344 -53.773438 C 47.269531 -54.671875 46.710938 -55.425781 46.027344 -56.101562 C 45.722656 -56.410156 45.421875 -56.648438 45.125 -56.886719 L 48.824219 -57.289062 C 47.472656 -58.4375 45.894531 -59.21875 44.070312 -59.699219 C 41.90625 -60.210938 39.308594 -60.339844 36.347656 -60.015625 L 20.003906 -58.242188 C 17.046875 -57.921875 14.535156 -57.238281 12.53125 -56.273438 C 10.855469 -55.410156 9.546875 -54.316406 8.472656 -52.90625 L 4.773438 -52.503906 C 4.535156 -52.207031 4.226562 -51.902344 4.0625 -51.542969 C 3.539062 -50.738281 3.15625 -49.878906 2.855469 -48.894531 L -0.308594 -48.550781 C -0.78125 -47.273438 -1.105469 -45.878906 -1.273438 -44.292969 C -1.320312 -44.085938 -1.289062 -43.816406 -1.328125 -43.539062 L 3.582031 -44.074219 C 3.3125 -41.527344 3.367188 -38.539062 3.730469 -35.175781 L 4.117188 -31.613281 L -0.722656 -31.085938 L -0.546875 -29.472656 L 2.613281 -29.816406 L 3.476562 -21.878906 L 1.054688 -21.617188 L 1.074219 -21.414062 C 1.257812 -19.734375 1.492188 -18.195312 1.78125 -16.796875 L 3.867188 -17.023438 C 4.207031 -15.15625 4.65625 -13.503906 5.148438 -12.125 C 5.445312 -11.273438 5.734375 -10.488281 6.089844 -9.710938 L 1.71875 -9.238281 C 1.980469 -8.71875 2.238281 -8.203125 2.566406 -7.695312 L 8.753906 -8.367188 C 9.257812 -7.46875 9.882812 -6.722656 10.503906 -6.039062 C 11.34375 -5.179688 12.234375 -4.527344 13.246094 -3.957031 L 9.617188 -3.5625 C 10.480469 -3.113281 11.480469 -2.675781 12.527344 -2.449219 C 14.625 -1.929688 17.222656 -1.804688 20.183594 -2.125 L 36.589844 -3.90625 C 39.550781 -4.230469 42.0625 -4.910156 44.066406 -5.875 C 45.039062 -6.320312 45.855469 -6.953125 46.671875 -7.585938 L 50.300781 -7.980469 C 51.171875 -8.757812 51.898438 -9.585938 52.542969 -10.539062 C 53.058594 -11.410156 53.441406 -12.269531 53.8125 -13.261719 L 49.371094 -12.78125 C 49.582031 -13.347656 49.726562 -13.90625 49.871094 -14.46875 L 52.492188 -14.753906 C 52.671875 -15.589844 52.855469 -16.425781 52.894531 -17.3125 C 53.070312 -18.828125 53.164062 -20.472656 53.09375 -22.371094 L 55.109375 -22.589844 C 55.09375 -24.015625 54.992188 -25.570312 54.808594 -27.253906 L 54.785156 -27.453125 L 53.644531 -27.328125 L 52.78125 -35.265625 L 50.292969 -34.996094 L 50.117188 -36.609375 Z M 40.273438 -33.90625 L 41.136719 -25.972656 L 44.765625 -26.367188 L 44.921875 -24.953125 C 45.058594 -23.675781 45.117188 -22.523438 45.15625 -21.507812 L 43.140625 -21.289062 C 43.132812 -20.746094 43.125 -20.199219 43.105469 -19.722656 C 42.96875 -18.480469 42.75 -17.367188 42.285156 -16.636719 C 41.894531 -15.847656 41.273438 -15.304688 40.429688 -14.9375 C 39.589844 -14.507812 38.460938 -14.25 37.050781 -14.09375 L 21.3125 -12.386719 C 19.902344 -12.234375 18.742188 -12.242188 17.765625 -12.476562 C 16.929688 -12.65625 16.207031 -13.054688 15.652344 -13.746094 C 15.042969 -14.359375 14.523438 -15.390625 14.1875 -16.578125 C 14.070312 -17.042969 13.945312 -17.574219 13.820312 -18.105469 L 11.734375 -17.878906 C 11.492188 -18.871094 11.300781 -20.007812 11.160156 -21.285156 L 11.007812 -22.699219 L 13.429688 -22.960938 L 12.566406 -30.894531 L 27.695312 -32.539062 L 27.523438 -34.152344 L 14.140625 -32.699219 L 13.628906 -37.40625 C 13.414062 -39.359375 13.300781 -41.046875 13.421875 -42.421875 C 13.5 -43.585938 13.742188 -44.496094 14.074219 -45.214844 L 9.164062 -44.679688 C 9.214844 -44.820312 9.277344 -44.894531 9.328125 -45.039062 C 9.726562 -45.761719 10.347656 -46.304688 11.183594 -46.738281 C 12.03125 -47.101562 13.152344 -47.425781 14.5625 -47.578125 L 30.300781 -49.289062 C 31.710938 -49.441406 32.878906 -49.367188 33.847656 -49.199219 C 34.691406 -48.949219 35.414062 -48.550781 35.960938 -47.929688 C 36.042969 -47.804688 36.117188 -47.742188 36.199219 -47.617188 L 41.105469 -48.148438 C 41.582031 -47.523438 42.023438 -46.617188 42.339844 -45.5625 C 42.757812 -44.246094 43.007812 -42.574219 43.21875 -40.621094 L 43.730469 -35.914062 L 38.417969 -35.335938 L 38.589844 -33.722656 Z M 37.769531 -21.25 L 27.949219 -20.183594 L 27.855469 -21.058594 L 37.675781 -22.125 Z M 25.28125 -16.558594 L 18.894531 -15.867188 L 18.84375 -16.335938 L 25.230469 -17.03125 Z M 35.378906 -43.242188 L 22.601562 -41.851562 L 22.464844 -43.128906 L 35.242188 -44.519531 Z M 25.671875 -25.515625 L 16.253906 -24.492188 L 16.183594 -25.164062 L 25.597656 -26.1875 Z M 25.671875 -25.515625 "/></g></g></g><g fill="#e61c12" fill-opacity="1"><g transform="translate(130.04444, 77.888888)"><g><path d="M 55.664062 -34.058594 L 55.46875 -37.636719 C 55.285156 -41.015625 54.851562 -43.972656 54.242188 -46.445312 L 49.3125 -46.179688 C 49.230469 -46.445312 49.214844 -46.714844 49.136719 -46.914062 C 48.714844 -48.449219 48.167969 -49.773438 47.492188 -50.957031 L 50.601562 -51.125 C 50.144531 -52.050781 49.625 -52.835938 48.976562 -53.542969 C 48.691406 -53.867188 48.40625 -54.121094 48.121094 -54.378906 L 51.835938 -54.582031 C 50.550781 -55.796875 49.011719 -56.664062 47.21875 -57.242188 C 45.085938 -57.871094 42.496094 -58.136719 39.523438 -57.976562 L 23.109375 -57.082031 C 20.136719 -56.917969 17.59375 -56.375 15.539062 -55.515625 C 13.820312 -54.746094 12.453125 -53.722656 11.308594 -52.375 L 7.59375 -52.171875 C 7.335938 -51.886719 7.015625 -51.597656 6.828125 -51.25 C 6.261719 -50.472656 5.832031 -49.636719 5.480469 -48.667969 L 2.304688 -48.496094 C 1.761719 -47.246094 1.363281 -45.871094 1.109375 -44.300781 C 1.054688 -44.09375 1.070312 -43.824219 1.015625 -43.546875 L 5.945312 -43.816406 C 5.542969 -41.289062 5.433594 -38.300781 5.617188 -34.925781 L 5.8125 -31.34375 L 0.949219 -31.078125 L 1.039062 -29.457031 L 4.210938 -29.632812 L 4.648438 -21.660156 L 2.214844 -21.527344 L 2.226562 -21.324219 C 2.316406 -19.636719 2.46875 -18.085938 2.683594 -16.675781 L 4.777344 -16.789062 C 5.015625 -14.90625 5.375 -13.230469 5.792969 -11.832031 C 6.042969 -10.964844 6.289062 -10.164062 6.601562 -9.371094 L 2.210938 -9.128906 C 2.445312 -8.601562 2.675781 -8.070312 2.976562 -7.546875 L 9.191406 -7.886719 C 9.648438 -6.960938 10.230469 -6.179688 10.8125 -5.464844 C 11.605469 -4.5625 12.457031 -3.863281 13.441406 -3.238281 L 9.792969 -3.039062 C 10.632812 -2.542969 11.609375 -2.054688 12.640625 -1.773438 C 14.707031 -1.140625 17.296875 -0.875 20.265625 -1.035156 L 36.75 -1.933594 C 39.722656 -2.09375 42.265625 -2.640625 44.320312 -3.496094 C 45.3125 -3.890625 46.164062 -4.476562 47.011719 -5.066406 L 50.660156 -5.265625 C 51.566406 -5.992188 52.335938 -6.777344 53.03125 -7.699219 C 53.597656 -8.542969 54.023438 -9.378906 54.445312 -10.347656 L 49.988281 -10.105469 C 50.230469 -10.660156 50.402344 -11.210938 50.574219 -11.765625 L 53.210938 -11.90625 C 53.4375 -12.734375 53.660156 -13.558594 53.75 -14.445312 C 54.007812 -15.949219 54.1875 -17.582031 54.21875 -19.480469 L 56.246094 -19.59375 C 56.304688 -21.019531 56.289062 -22.574219 56.195312 -24.265625 L 56.183594 -24.46875 L 55.035156 -24.40625 L 54.601562 -32.375 L 52.101562 -32.238281 L 52.015625 -33.859375 Z M 42.039062 -31.691406 L 42.472656 -23.71875 L 46.121094 -23.917969 L 46.199219 -22.5 C 46.265625 -21.21875 46.261719 -20.066406 46.25 -19.046875 L 44.222656 -18.9375 C 44.183594 -18.394531 44.148438 -17.851562 44.105469 -17.375 C 43.902344 -16.144531 43.621094 -15.042969 43.117188 -14.339844 C 42.6875 -13.570312 42.035156 -13.0625 41.171875 -12.742188 C 40.3125 -12.355469 39.171875 -12.160156 37.753906 -12.082031 L 21.949219 -11.222656 C 20.53125 -11.144531 19.375 -11.21875 18.410156 -11.503906 C 17.585938 -11.730469 16.882812 -12.164062 16.371094 -12.882812 C 15.792969 -13.527344 15.328125 -14.585938 15.058594 -15.792969 C 14.96875 -16.261719 14.871094 -16.796875 14.773438 -17.335938 L 12.679688 -17.21875 C 12.488281 -18.226562 12.359375 -19.371094 12.289062 -20.65625 L 12.210938 -22.074219 L 14.644531 -22.207031 L 14.210938 -30.175781 L 29.40625 -31.003906 L 29.320312 -32.625 L 15.878906 -31.890625 L 15.621094 -36.621094 C 15.511719 -38.578125 15.488281 -40.273438 15.6875 -41.636719 C 15.824219 -42.796875 16.117188 -43.691406 16.484375 -44.390625 L 11.554688 -44.121094 C 11.613281 -44.261719 11.675781 -44.332031 11.738281 -44.472656 C 12.171875 -45.171875 12.824219 -45.683594 13.683594 -46.066406 C 14.546875 -46.386719 15.683594 -46.652344 17.101562 -46.726562 L 32.90625 -47.589844 C 34.328125 -47.664062 35.484375 -47.527344 36.445312 -47.308594 C 37.273438 -47.011719 37.976562 -46.578125 38.484375 -45.925781 C 38.5625 -45.796875 38.632812 -45.730469 38.707031 -45.601562 L 43.636719 -45.871094 C 44.078125 -45.214844 44.46875 -44.289062 44.730469 -43.21875 C 45.074219 -41.882812 45.234375 -40.199219 45.339844 -38.238281 L 45.597656 -33.511719 L 40.261719 -33.21875 L 40.351562 -31.597656 Z M 38.859375 -19.1875 L 28.996094 -18.652344 L 28.949219 -19.527344 L 38.808594 -20.066406 Z M 26.136719 -15.175781 L 19.71875 -14.828125 L 19.695312 -15.300781 L 26.109375 -15.648438 Z M 37.65625 -41.277344 L 24.820312 -40.578125 L 24.75 -41.859375 L 37.585938 -42.558594 Z M 27.007812 -24.097656 L 17.550781 -23.582031 L 17.511719 -24.257812 L 26.96875 -24.773438 Z M 27.007812 -24.097656 "/></g></g></g><g fill="#e61c12" fill-opacity="1"><g transform="translate(192.085357, 74.574073)"><g><path d="M 48.148438 -3.796875 L 48.128906 -7.855469 C 48.121094 -9.953125 46.765625 -10.21875 46.226562 -10.214844 L 24.242188 -10.117188 C 22.820312 -10.113281 21.601562 -10.242188 20.722656 -10.578125 L 17.269531 -10.5625 C 16.457031 -10.828125 15.78125 -11.367188 15.304688 -12.039062 C 14.757812 -12.78125 14.414062 -13.796875 14.140625 -15.011719 C 14.140625 -15.011719 14.140625 -15.011719 14.140625 -15.078125 L 17.117188 -15.09375 C 16.90625 -16.378906 16.765625 -18.066406 16.753906 -20.097656 L 16.746094 -22.398438 L 22.699219 -22.421875 L 22.691406 -23.910156 L 16.941406 -23.886719 L 16.890625 -35.386719 L 14.050781 -35.375 L 14.03125 -39.90625 L 26.273438 -39.960938 L 26.261719 -43.003906 L 14.964844 -42.953125 L 14.945312 -47.484375 L 16.839844 -47.496094 L 16.820312 -51.960938 L 13.367188 -51.945312 L 13.363281 -53.433594 C 13.351562 -55.597656 12 -55.792969 11.457031 -55.792969 L 5.234375 -55.765625 C 4.625 -55.761719 3.273438 -55.550781 3.28125 -53.386719 L 3.289062 -51.898438 L 6.808594 -51.914062 L 6.828125 -47.449219 L 0.875 -47.425781 L 0.894531 -42.890625 L 6.101562 -42.914062 L 6.117188 -39.871094 L 3.949219 -39.863281 L 3.972656 -35.328125 L 6.878906 -35.34375 L 6.929688 -23.84375 L 3.546875 -23.828125 L 3.554688 -22.339844 L 6.734375 -22.351562 L 6.738281 -21.203125 C 6.75 -18.902344 6.894531 -16.875 7.105469 -15.050781 L 4.058594 -15.035156 C 4.269531 -13.75 4.410156 -12.535156 4.683594 -11.519531 C 4.753906 -11.113281 4.890625 -10.84375 4.960938 -10.507812 L 8.34375 -10.523438 C 8.960938 -8.292969 9.847656 -6.335938 11.074219 -4.917969 C 11.414062 -4.445312 11.753906 -4.042969 12.160156 -3.640625 L 5.667969 -3.609375 C 6.277344 -3.070312 6.957031 -2.601562 7.703125 -2.132812 L 15.820312 -2.167969 C 16.5 -1.765625 17.175781 -1.429688 17.921875 -1.160156 C 20.023438 -0.425781 22.59375 -0.03125 25.503906 -0.0429688 L 47.894531 -0.144531 C 48.433594 -0.144531 49.652344 -0.421875 49.710938 -2.316406 L 51.738281 -2.324219 C 51.738281 -2.390625 51.738281 -2.460938 51.738281 -2.527344 L 51.734375 -3.8125 Z M 35.332031 -26.335938 L 25.453125 -26.292969 L 25.449219 -27.171875 L 35.328125 -27.214844 Z M 32.203125 -14.753906 L 17.996094 -14.691406 L 17.992188 -15.433594 L 32.199219 -15.496094 Z M 34.222656 -47.636719 L 20.355469 -47.578125 L 20.347656 -48.929688 L 34.214844 -48.992188 Z M 34.222656 -47.636719 "/></g></g></g><g fill="#e61c12" fill-opacity="1"><g transform="translate(245.334844, 74.275855)"><g><path d="M 49.164062 -51.128906 L 49.171875 -51.328125 C 49.265625 -53.492188 47.988281 -53.75 47.378906 -53.777344 L 8.585938 -55.425781 C 7.976562 -55.453125 6.683594 -55.234375 6.589844 -53.074219 L 6.585938 -52.9375 L 14.152344 -52.617188 L 14.09375 -51.195312 L 6.523438 -51.519531 L 6.367188 -47.867188 C 6.359375 -47.667969 6.355469 -47.53125 6.417969 -47.394531 L 10.605469 -47.214844 C 10.738281 -45.515625 11.878906 -45.265625 12.351562 -45.246094 L 53.714844 -43.484375 C 54.1875 -43.464844 55.34375 -43.621094 55.617188 -45.300781 L 48.925781 -45.585938 C 48.933594 -45.71875 48.9375 -45.855469 48.945312 -45.992188 L 49.101562 -49.707031 L 53.5625 -49.519531 L 53.625 -50.9375 Z M 49.28125 -25.257812 L 49.34375 -26.675781 L 53.125 -26.515625 L 53.210938 -28.476562 C 53.300781 -30.570312 51.960938 -30.898438 51.417969 -30.921875 L 16.542969 -32.335938 C 14.644531 -32.28125 12.839844 -31.277344 11.824219 -29.695312 C 11.535156 -29.234375 11.3125 -28.769531 11.15625 -28.300781 L 7.371094 -28.460938 C 7.296875 -28.328125 7.296875 -28.261719 7.289062 -28.128906 L 7.175781 -27.046875 L 13.933594 -26.761719 L 13.574219 -19.871094 L 15.601562 -19.785156 L 15.421875 -15.59375 L 5.625 -16.011719 L 5.28125 -9.59375 L 13.121094 -9.257812 L 13.0625 -7.839844 L 7.046875 -8.097656 L 6.867188 -3.90625 L 13.558594 -3.621094 L 13.480469 -1.730469 C 13.390625 0.367188 14.730469 0.695312 15.339844 0.71875 L 21.488281 0.980469 C 22.097656 1.007812 23.394531 0.792969 23.480469 -1.304688 C 23.480469 -1.304688 23.511719 -1.980469 23.5625 -3.195312 L 16.871094 -3.480469 C 16.917969 -4.5625 16.980469 -6.046875 17.050781 -7.671875 L 36.175781 -6.855469 C 36.195312 -7.332031 36.214844 -7.804688 36.238281 -8.277344 L 15.285156 -9.167969 C 15.375 -11.261719 15.535156 -13.488281 15.625 -15.585938 L 25.359375 -15.171875 C 25.425781 -16.726562 25.554688 -18.210938 25.605469 -19.359375 L 23.578125 -19.445312 C 23.644531 -21.066406 23.6875 -22.082031 23.6875 -22.082031 L 52.683594 -20.847656 C 53.222656 -20.824219 54.582031 -20.96875 54.671875 -23.066406 L 54.757812 -25.023438 Z M 45.058594 -34.171875 L 22.144531 -35.144531 L 22.191406 -36.226562 L 45.101562 -35.253906 Z M 46.433594 -14.003906 L 31.496094 -14.640625 L 31.542969 -15.722656 L 46.480469 -15.085938 Z M 29.550781 -38.960938 L 15.496094 -39.558594 L 15.523438 -40.234375 L 29.582031 -39.636719 Z M 29.550781 -38.960938 "/></g></g></g><g fill="#e61c12" fill-opacity="1"><g transform="translate(300.226745, 76.586061)"><g><path d="M 48.292969 0.730469 L 48.652344 -3.3125 C 48.839844 -5.402344 47.519531 -5.792969 46.980469 -5.839844 L 25.082031 -7.804688 C 23.667969 -7.929688 22.464844 -8.171875 21.621094 -8.589844 L 18.183594 -8.898438 C 17.398438 -9.238281 16.773438 -9.839844 16.363281 -10.554688 C 15.890625 -11.34375 15.644531 -12.386719 15.484375 -13.621094 C 15.484375 -13.621094 15.484375 -13.621094 15.488281 -13.6875 L 18.453125 -13.421875 C 18.367188 -14.722656 18.382812 -16.417969 18.5625 -18.4375 L 18.769531 -20.730469 L 24.699219 -20.199219 L 24.832031 -21.679688 L 19.105469 -22.195312 L 20.132812 -33.648438 L 17.300781 -33.902344 L 17.707031 -38.417969 L 29.902344 -37.324219 L 30.171875 -40.355469 L 18.921875 -41.363281 L 19.328125 -45.878906 L 21.210938 -45.707031 L 21.613281 -50.15625 L 18.175781 -50.464844 L 18.308594 -51.945312 C 18.5 -54.101562 17.171875 -54.425781 16.632812 -54.472656 L 10.433594 -55.027344 C 9.828125 -55.082031 8.460938 -55 8.269531 -52.84375 L 8.136719 -51.363281 L 11.640625 -51.050781 L 11.242188 -46.601562 L 5.3125 -47.132812 L 4.90625 -42.621094 L 10.09375 -42.15625 L 9.824219 -39.121094 L 7.667969 -39.316406 L 7.261719 -34.800781 L 10.160156 -34.542969 L 9.132812 -23.089844 L 5.765625 -23.390625 L 5.632812 -21.90625 L 8.796875 -21.625 L 8.695312 -20.480469 C 8.488281 -18.1875 8.445312 -16.15625 8.484375 -14.316406 L 5.449219 -14.589844 C 5.539062 -13.289062 5.5625 -12.066406 5.742188 -11.03125 C 5.773438 -10.621094 5.886719 -10.339844 5.921875 -9.996094 L 9.289062 -9.695312 C 9.699219 -7.417969 10.398438 -5.382812 11.484375 -3.859375 C 11.777344 -3.359375 12.078125 -2.925781 12.449219 -2.484375 L 5.980469 -3.0625 C 6.539062 -2.46875 7.167969 -1.9375 7.867188 -1.398438 L 15.953125 -0.675781 C 16.589844 -0.210938 17.234375 0.1875 17.953125 0.523438 C 19.972656 1.449219 22.496094 2.085938 25.394531 2.34375 L 47.695312 4.34375 C 48.234375 4.390625 49.472656 4.230469 49.707031 2.351562 L 51.730469 2.53125 C 51.734375 2.464844 51.742188 2.398438 51.746094 2.328125 L 51.863281 1.050781 Z M 37.640625 -22.910156 L 27.804688 -23.792969 L 27.882812 -24.667969 L 37.722656 -23.785156 Z M 33.441406 -11.671875 L 19.292969 -12.941406 L 19.359375 -13.683594 L 33.507812 -12.414062 Z M 38.535156 -44.222656 L 24.722656 -45.460938 L 24.84375 -46.808594 L 38.65625 -45.570312 Z M 38.535156 -44.222656 "/></g></g></g><g fill="#e61c12" fill-opacity="1"><g transform="translate(353.451688, 81.58535)"><g><path d="M 29.085938 -39.226562 L 22.84375 -39.992188 L 22.925781 -40.664062 L 29.167969 -39.894531 Z M 6.164062 -5.785156 L 1.664062 -6.339844 L 1.746094 -7.007812 L 6.246094 -6.457031 Z M 21.171875 -37.472656 L 21.953125 -43.851562 L 28.667969 -43.023438 L 28.84375 -44.433594 L 20.179688 -45.5 L 20.691406 -49.664062 L 25.726562 -49.042969 L 25.917969 -50.585938 C 26.175781 -52.667969 24.730469 -53.117188 24.058594 -53.203125 L 16.941406 -54.078125 C 16.269531 -54.160156 14.691406 -54.082031 14.4375 -52 L 14.246094 -50.457031 L 10.757812 -50.882812 L 10.242188 -46.722656 L 15.210938 -46.109375 L 15.039062 -44.699219 L 12.019531 -45.074219 L 11.234375 -38.695312 L 8.613281 -39.015625 L 8.101562 -34.851562 L 13.003906 -34.25 L 12.160156 -27.402344 L 6.453125 -28.105469 L 6.28125 -26.695312 L 8.496094 -26.421875 L 7.183594 -15.746094 L 9.535156 -15.457031 L 9.023438 -11.292969 L 6.671875 -11.582031 L 6.316406 -8.695312 L 9.273438 -8.332031 L 8.757812 -4.171875 L 6.140625 -4.492188 L 5.785156 -1.605469 C 5.53125 0.476562 6.839844 0.910156 7.445312 0.984375 L 13.621094 1.742188 C 14.160156 1.808594 15.535156 1.707031 15.789062 -0.375 L 16.144531 -3.261719 L 18.695312 -2.949219 L 19.207031 -7.113281 L 16.253906 -7.476562 L 16.609375 -10.363281 L 18.960938 -10.074219 L 19.472656 -14.234375 L 17.121094 -14.523438 L 18.433594 -25.199219 L 24.542969 -24.449219 L 24.71875 -25.859375 L 22.097656 -26.179688 L 22.941406 -33.027344 L 18.039062 -33.632812 L 18.550781 -37.792969 Z M 21.171875 -37.472656 "/></g></g></g><g fill="#e61c12" fill-opacity="1"><g transform="translate(375.826862, 83.926465)"><g><path d="M 53.988281 6.832031 C 54.0625 6.363281 53.984375 6.007812 53.769531 5.632812 L 52.285156 2.515625 L 57.695312 3.382812 L 55.117188 -1.894531 L 51.175781 -2.527344 L 47.417969 -10.257812 L 50.757812 -9.722656 L 47.976562 -15.445312 L 43.636719 -16.140625 L 41.980469 -19.492188 L 47.191406 -18.652344 L 45.59375 -21.925781 L 47.871094 -24.164062 L 42.328125 -25.054688 L 47.714844 -30.421875 L 52.589844 -29.636719 L 57.066406 -34.058594 L 54.929688 -34.402344 L 55.007812 -34.457031 L 53.070312 -34.769531 L 57.484375 -39.199219 L 61.625 -38.53125 L 65.949219 -42.835938 C 66.027344 -42.894531 66.101562 -42.949219 66.113281 -43.015625 L 61.039062 -43.832031 C 61.378906 -44.257812 61.589844 -44.703125 61.609375 -45.25 C 61.601562 -46.070312 61.144531 -46.625 60.277344 -46.765625 L 52.929688 -47.945312 C 52.394531 -48.03125 51.839844 -47.984375 51.472656 -47.835938 C 51.097656 -47.625 50.707031 -47.34375 50.445312 -46.976562 L 49.148438 -45.746094 L 54.226562 -44.929688 L 49.667969 -40.453125 L 45.527344 -41.121094 L 41.050781 -36.699219 L 42.984375 -36.390625 L 42.910156 -36.332031 L 45.046875 -35.988281 L 40.566406 -31.570312 L 39.765625 -31.699219 L 37.097656 -37.269531 L 34.960938 -37.613281 L 34.972656 -37.679688 L 33.035156 -37.988281 L 30.367188 -43.558594 L 34.507812 -42.890625 L 31.785156 -48.535156 L 26.707031 -49.351562 L 26 -50.90625 C 25.796875 -51.347656 25.515625 -51.738281 25.226562 -52.058594 C 24.921875 -52.3125 24.476562 -52.519531 23.875 -52.617188 L 16.128906 -53.863281 C 15.261719 -54.003906 14.652344 -53.621094 14.457031 -52.832031 C 14.304688 -52.308594 14.359375 -51.816406 14.488281 -51.316406 L 19.5625 -50.5 C 19.617188 -50.425781 19.609375 -50.359375 19.664062 -50.28125 L 22.351562 -44.847656 L 18.210938 -45.511719 L 20.945312 -39.933594 L 22.882812 -39.621094 L 22.9375 -39.542969 L 25.007812 -39.210938 L 27.8125 -33.621094 L 22.933594 -34.40625 L 26.300781 -27.628906 L 31.84375 -26.738281 L 33.101562 -24.34375 L 30.160156 -21.390625 L 19.675781 -23.078125 L 17.054688 -20.414062 L 26.671875 -18.871094 L 22.238281 -14.308594 L 18.898438 -14.84375 L 12.839844 -8.691406 L 16.847656 -8.046875 L 12.679688 -3.855469 L 7.269531 -4.722656 L 4.878906 -2.230469 C 4.558594 -1.9375 4.371094 -1.625 4.230469 -1.167969 L 9.105469 -0.386719 C 9.085938 -0.253906 9.050781 -0.0507812 9.019531 0.148438 C 8.957031 0.960938 9.417969 1.515625 10.21875 1.644531 L 17.632812 2.835938 C 18.234375 2.933594 18.710938 2.941406 19.089844 2.726562 C 19.453125 2.578125 19.84375 2.300781 20.183594 1.875 L 20.59375 1.460938 L 15.785156 0.6875 L 19.15625 -2.8125 L 24.632812 -1.929688 L 28.734375 -6.136719 L 24.726562 -6.78125 L 30.789062 -12.933594 L 34.125 -12.394531 L 36.757812 -15.125 L 38.402344 -11.707031 L 35.0625 -12.246094 L 38.886719 -4.503906 L 42.828125 -3.871094 L 45.40625 1.410156 L 39.929688 0.527344 L 42.097656 4.917969 L 46.976562 5.703125 L 47.175781 6.148438 C 47.425781 6.734375 47.640625 7.113281 47.996094 7.445312 C 48.296875 7.699219 48.753906 7.839844 49.355469 7.9375 L 57.105469 9.183594 C 57.90625 9.3125 58.582031 8.941406 58.777344 8.148438 C 58.808594 7.949219 58.84375 7.75 58.863281 7.613281 Z M 23.503906 -24.3125 L 17.558594 -25.269531 L 17.839844 -27.003906 L 23.785156 -26.046875 Z M 57.164062 -24.859375 L 48.75 -26.214844 L 48.964844 -27.550781 L 57.378906 -26.195312 Z M 52.523438 -15.601562 L 46.847656 -16.515625 L 47.050781 -17.785156 L 52.730469 -16.871094 Z M 47.164062 -44.488281 L 36.144531 -46.257812 L 36.351562 -47.527344 L 47.371094 -45.757812 Z M 33.964844 2.242188 L 22.945312 0.46875 L 23.160156 -0.867188 L 34.179688 0.90625 Z M 33.964844 2.242188 "/></g></g></g></svg>